<?xml version="1.0" encoding="UTF-8"?>
<svg width="1024px" height="1024px" viewBox="0 0 1024 1024" version="1.1" xmlns="http://www.w3.org/2000/svg" xmlns:xlink="http://www.w3.org/1999/xlink">
    <title>Icon</title>
    <g id="Icon" stroke="none" stroke-width="1" fill="none" fill-rule="evenodd">
        <rect id="Background" fill="#0E3345" x="0" y="0" width="1024" height="1024"></rect>
        <g id="Logo" transform="translate(128.000000, 128.000000)">
            <g id="Secondary" fill="#57CBCC">
                <path d="M434.771231,276.8506 C455.432725,286.139914 474.789129,299.269746 491.76122,316.239587 C529.251904,353.736317 548,402.870912 548,452 C548,501.134596 529.251904,550.269191 491.76122,587.765921 C474.790772,604.73412 455.436471,617.861925 434.777229,627.149848 C395.696439,623.301463 357.657872,606.402332 327.724734,576.455433 C311.651608,560.372371 299.324052,542.001101 290.742619,522.419818 C309.122728,539.471605 332.559747,548 355.996765,548 C380.574991,548 405.146747,538.625783 423.889342,519.88382 C442.631937,501.141856 452,476.570928 452,452 C452,427.429072 442.631937,402.858144 423.889342,384.109711 C405.146747,365.374217 380.574991,356 355.996765,356 C332.639093,356 309.281421,364.470747 290.930847,381.401127 C299.473524,361.851955 311.739039,343.540143 327.724734,327.544567 C357.605268,297.650295 395.562768,280.757974 434.570274,276.871183 Z" id="inner"></path>
                <path d="M384.00268,0 L384.00268,0.209065654 C482.396867,0.203704996 580.678481,37.6318177 655.523463,112.477322 C730.507821,187.456843 768,285.733782 768,384 C768,418.682821 763.329525,453.366978 753.988576,487.027908 C755.328857,475.392388 756,463.694612 756,451.997098 C756,374.205833 726.318247,296.402959 666.954742,237.045258 C642.739541,212.830057 615.457109,193.553715 586.358613,179.216231 C530.177098,123.736789 457.083925,96 384.111561,96 L384.111561,96 L384.111561,96.2175458 C310.425597,96.2175458 236.745211,124.320005 180.53526,180.5305 C124.325308,236.740996 96.2175437,310.422095 96.2175437,384.108773 L96.2175437,384.108773 L96,384.108773 C96,457.655998 124.174701,531.325941 180.53526,587.681467 L179.400262,586.539808 C193.697453,615.600195 212.912452,642.821936 237.045258,666.954742 C296.408763,726.318247 374.205833,756 451.997098,756 C463.695485,756 475.393871,755.328857 487.029582,753.986571 C453.369174,763.329493 418.685259,768 384.00268,768 C285.731788,768 187.455534,730.507559 112.476537,655.528039 C37.6315551,580.682535 0.209064195,482.400235 0.209064195,384 L0.209064195,384 L0,384 C0,285.733782 37.4921789,187.456843 112.476537,112.477322 C187.455534,37.48708 285.731788,0 384.00268,0 L384.00268,0 Z" id="outer"></path>
                <path d="M316.426983,587.769564 C278.810971,550.1303 260,501.002843 260,452 L260.231282,452 C260.231282,402.860675 278.965159,353.715416 316.426983,316.230436 C353.894737,278.745457 403.003706,260 452.112676,260 C501.227576,260 550.336546,278.745457 587.798369,316.230436 C625.266123,353.715416 644,402.860675 644,452 C644,501.145259 625.266123,550.284584 587.798369,587.769564 C550.336546,625.254543 501.227576,644 452.112676,644 C403.003706,644 353.894737,625.254543 316.426983,587.769564 Z M451.997251,740 C525.699737,740 599.402224,711.880445 655.641335,655.641335 C711.880445,599.402224 740,525.694239 740,451.997251 C740,378.300263 711.880445,304.592277 655.641335,248.358665 C599.402224,192.119555 525.699737,164 451.997251,164 C378.300263,164 304.597776,192.119555 248.358665,248.358665 C192.119555,304.592277 164,378.300263 164,451.997251 L164.214443,451.997251 C164.214443,525.831703 192.262517,599.545186 248.358665,655.641335 C304.597776,711.880445 378.300263,740 451.997251,740 Z" id="middle"></path>
            </g>
            <g id="Primary" fill="#FFFFFF" opacity="0.38">
                <path d="M355.996765,548 C331.425009,548 306.853253,538.625783 288.110658,519.88382 C269.368063,501.141856 260,476.570928 260,452 C260,427.429072 269.374532,402.858144 288.110658,384.109711 C306.853253,365.374217 331.425009,356 355.996765,356 C380.574991,356 405.146747,365.374217 423.889342,384.109711 C442.631937,402.858144 452,427.429072 452,452 C452,476.570928 442.631937,501.141856 423.889342,519.88382 C405.146747,538.625783 380.574991,548 355.996765,548 Z M355.997246,644 C405.131137,644 454.265028,625.257143 491.76122,587.765921 C529.251904,550.269191 548,501.134596 548,452 C548,402.870912 529.251904,353.736317 491.76122,316.239587 C454.265028,278.748365 405.131137,260 355.997246,260 C306.868863,260 257.734972,278.748365 220.23878,316.239587 C182.748096,353.736317 164,402.870912 164,452 C164,501.134596 182.748096,550.269191 220.23878,587.765921 C257.734972,625.257143 306.868863,644 355.997246,644 Z" id="inner"></path>
                <path d="M180.53526,587.681467 C124.174701,531.325941 96,457.655998 96,384.108773 L96.2175437,384.108773 C96.2175437,310.422095 124.325308,236.740996 180.53526,180.5305 C236.745211,124.320005 310.425597,96.2175458 384.111561,96.2175458 L384.111561,96 C457.658074,96 531.327303,124.174974 587.682284,180.5305 C643.892235,236.740996 672,310.422095 672,384.108773 C672,457.79545 643.897813,531.470972 587.682284,587.681467 C531.472333,643.897541 457.791947,672 384.111561,672 C310.425597,672 236.745211,643.897541 180.53526,587.681467 Z M384.00268,768 C482.268212,768 580.544466,730.507559 655.523463,655.528039 C730.507821,580.543157 768,482.266218 768,384 C768,285.733782 730.507821,187.456843 655.523463,112.477322 C580.678481,37.6318177 482.396867,0.203704996 384.00268,0.209065654 L384.00268,0 C285.731788,0 187.455534,37.48708 112.476537,112.477322 C37.4921789,187.456843 0,285.733782 0,384 L0.209064195,384 C0.209064195,482.400235 37.6315551,580.682535 112.476537,655.528039 C187.455534,730.507559 285.731788,768 384.00268,768 Z" id="outer"></path>
                <path d="M316.426983,587.769564 C278.810971,550.1303 260,501.002843 260,452 L260.231282,452 C260.231282,402.860675 278.965159,353.715416 316.426983,316.230436 C353.894737,278.745457 403.003706,260 452.112676,260 C501.227576,260 550.336546,278.745457 587.798369,316.230436 C625.266123,353.715416 644,402.860675 644,452 C644,501.145259 625.266123,550.284584 587.798369,587.769564 C550.336546,625.254543 501.227576,644 452.112676,644 C403.003706,644 353.894737,625.254543 316.426983,587.769564 Z M451.997251,740 C525.699737,740 599.402224,711.880445 655.641335,655.641335 C711.880445,599.402224 740,525.694239 740,451.997251 C740,378.300263 711.880445,304.592277 655.641335,248.358665 C599.402224,192.119555 525.699737,164 451.997251,164 C378.300263,164 304.597776,192.119555 248.358665,248.358665 C192.119555,304.592277 164,378.300263 164,451.997251 L164.214443,451.997251 C164.214443,525.831703 192.262517,599.545186 248.358665,655.641335 C304.597776,711.880445 378.300263,740 451.997251,740 Z" id="middle"></path>
            </g>
        </g>
        <g id="Corners" fill="#000000">
            <path d="" id="Smooth-Corners"></path>
        </g>
    </g>
</svg>