<svg width="1000" height="1000" viewBox="0 0 1000 1000" fill="none" xmlns="http://www.w3.org/2000/svg">
<g clip-path="url(#clip0)">
<circle cx="500" cy="2" r="500" fill="#C0C8CF" fill-opacity="0.38"/>
<circle cx="500" cy="1000" r="309" fill="#C0C8CF" fill-opacity="0.38"/>
<rect x="60.5" y="746.5" width="381" height="59" rx="9.5" fill="#198754" fill-opacity="0.38"/>
<path d="M84.7007 775.876H82.8247V772.292H84.7007C86.1567 772.292 86.7727 772.964 86.7727 774.098C86.7727 775.19 86.1567 775.876 84.7007 775.876ZM88.0747 774.098C88.0747 772.502 86.9967 771.242 84.7007 771.242H81.5507V781H82.8247V776.926H84.7007C87.1227 776.926 88.0747 775.582 88.0747 774.098ZM96.2101 781H97.5541L94.0401 771.298H92.5701L89.0421 781H90.3861L91.1701 778.83H95.4261L96.2101 781ZM95.0621 777.794H91.5341L93.2981 772.866L95.0621 777.794ZM102.186 781.098C104.3 781.098 105.434 779.726 105.434 778.34C105.434 774.728 100.17 776.296 100.17 773.776C100.17 772.726 100.996 772.18 102.046 772.208C103.236 772.222 103.852 772.964 103.936 773.622H105.336C105.182 772.138 103.964 771.116 102.102 771.116C100.17 771.116 98.8677 772.208 98.8677 773.818C98.8677 777.444 104.146 775.764 104.146 778.396C104.146 779.32 103.418 780.02 102.186 780.02C100.828 780.02 100.254 779.208 100.17 778.396H98.8117C98.8397 780.006 100.226 781.098 102.186 781.098ZM110.402 781.098C112.516 781.098 113.65 779.726 113.65 778.34C113.65 774.728 108.386 776.296 108.386 773.776C108.386 772.726 109.212 772.18 110.262 772.208C111.452 772.222 112.068 772.964 112.152 773.622H113.552C113.398 772.138 112.18 771.116 110.318 771.116C108.386 771.116 107.084 772.208 107.084 773.818C107.084 777.444 112.362 775.764 112.362 778.396C112.362 779.32 111.634 780.02 110.402 780.02C109.044 780.02 108.47 779.208 108.386 778.396H107.028C107.056 780.006 108.442 781.098 110.402 781.098ZM114.769 771.242L117.499 781.014L118.913 781L121.265 773.146L123.533 781H124.961L127.789 771.242H126.417L124.275 779.488L122.035 771.242H120.607L118.255 779.516L116.127 771.242H114.769ZM133.607 781.098C136.365 781.098 138.507 779.04 138.507 776.114C138.507 773.188 136.365 771.13 133.607 771.13C130.863 771.13 128.707 773.188 128.707 776.114C128.707 779.04 130.863 781.098 133.607 781.098ZM133.607 779.992C131.549 779.992 130.009 778.494 130.009 776.114C130.009 773.72 131.549 772.236 133.607 772.236C135.665 772.236 137.205 773.72 137.205 776.114C137.205 778.494 135.665 779.992 133.607 779.992ZM145.411 774.112C145.411 775.204 144.781 775.988 143.339 775.988H141.463V772.292H143.339C144.795 772.292 145.411 773.006 145.411 774.112ZM143.339 771.242H140.189V781H141.463V777.01H143.003L145.327 781H146.853L144.403 776.912C146.041 776.548 146.727 775.358 146.727 774.112C146.727 772.516 145.635 771.242 143.339 771.242ZM151.745 771.242H148.707V781H151.745C154.951 781 156.925 779.166 156.925 776.142C156.925 773.118 154.951 771.242 151.745 771.242ZM151.745 779.95H149.981V772.278H151.745C154.293 772.278 155.623 773.762 155.623 776.142C155.623 778.522 154.293 779.95 151.745 779.95Z" fill="black"/>
<path d="M277.413 782H278.241V776.906H280.635C283.281 776.906 284.865 775.772 284.865 773.45C284.865 771.002 283.281 770.138 280.635 770.138H277.413V782ZM278.241 776.204V770.84H280.437C282.849 770.84 284.019 771.452 284.019 773.45C284.019 775.394 282.849 776.204 280.437 776.204H278.241ZM291.122 782.216C293.714 782.216 295.55 779.804 295.55 776.024C295.55 772.262 293.714 769.922 291.122 769.922C288.53 769.922 286.694 772.262 286.694 776.024C286.694 779.804 288.53 782.216 291.122 782.216ZM291.122 781.46C288.998 781.46 287.558 779.336 287.558 776.024C287.558 772.73 288.998 770.678 291.122 770.678C293.246 770.678 294.686 772.73 294.686 776.024C294.686 779.336 293.246 781.46 291.122 781.46ZM297.415 782H305.785V781.28H298.405L305.659 770.624V770.12H298.027V770.822H304.669L297.415 781.496V782ZM311.988 782.216C314.58 782.216 316.416 779.804 316.416 776.024C316.416 772.262 314.58 769.922 311.988 769.922C309.396 769.922 307.56 772.262 307.56 776.024C307.56 779.804 309.396 782.216 311.988 782.216ZM311.988 781.46C309.864 781.46 308.424 779.336 308.424 776.024C308.424 772.73 309.864 770.678 311.988 770.678C314.112 770.678 315.552 772.73 315.552 776.024C315.552 779.336 314.112 781.46 311.988 781.46ZM319.721 782H326.723V781.28H320.513V770.138H319.721V782ZM331.504 775.016C331.972 773.612 332.404 772.37 332.818 770.912H332.89C333.304 772.37 333.718 773.612 334.204 775.016L334.96 777.23H330.748L331.504 775.016ZM328.264 782H329.092L330.496 777.932H335.194L336.562 782H337.444L333.268 770.138H332.44L328.264 782ZM340.587 782H347.589V781.28H341.379V770.138H340.587V782ZM353.288 782H354.188L358.058 770.138H357.23L355.034 777.068C354.584 778.508 354.26 779.606 353.774 781.046H353.702C353.216 779.606 352.91 778.508 352.46 777.068L350.264 770.138H349.382L353.288 782ZM364.153 782.216C366.655 782.216 368.113 780.002 368.113 776.204C368.113 772.388 366.655 770.282 364.153 770.282C361.651 770.282 360.193 772.388 360.193 776.204C360.193 780.002 361.651 782.216 364.153 782.216ZM364.153 770.948C366.025 770.948 367.303 772.712 367.303 776.204C367.303 777.518 367.123 778.58 366.799 779.408L361.849 772.316C362.407 771.398 363.199 770.948 364.153 770.948ZM364.153 781.532C362.281 781.532 361.003 779.714 361.003 776.204C361.003 774.908 361.183 773.828 361.507 773.018L366.475 780.11C365.917 781.046 365.107 781.532 364.153 781.532ZM370.266 784.25H378.906V783.422H370.266V784.25ZM384.605 782H385.433V777.644L389.501 770.138H388.691L386.639 774.044C386.153 774.962 385.649 775.898 385.091 776.852H385.019C384.479 775.898 384.029 774.962 383.489 774.062L381.383 770.138H380.537L384.605 777.644V782ZM392.338 782H399.538V781.28H393.166V776.06H398.386V775.34H393.166V770.858H399.358V770.138H392.338V782ZM403.185 782H410.187V781.28H403.977V770.138H403.185V782ZM416.318 782.216C418.91 782.216 420.746 779.804 420.746 776.024C420.746 772.262 418.91 769.922 416.318 769.922C413.726 769.922 411.89 772.262 411.89 776.024C411.89 779.804 413.726 782.216 416.318 782.216ZM416.318 781.46C414.194 781.46 412.754 779.336 412.754 776.024C412.754 772.73 414.194 770.678 416.318 770.678C418.442 770.678 419.882 772.73 419.882 776.024C419.882 779.336 418.442 781.46 416.318 781.46Z" fill="black"/>
<rect x="60.5" y="746.5" width="381" height="59" rx="9.5" stroke="black"/>
<rect x="60" y="566" width="382" height="60" rx="10" fill="#C0C8CF" fill-opacity="0.38"/>
<path d="M84.2316 601.098C86.3456 601.098 87.4796 599.726 87.4796 598.34C87.4796 594.728 82.2156 596.296 82.2156 593.776C82.2156 592.726 83.0416 592.18 84.0916 592.208C85.2816 592.222 85.8976 592.964 85.9816 593.622H87.3816C87.2276 592.138 86.0096 591.116 84.1476 591.116C82.2156 591.116 80.9136 592.208 80.9136 593.818C80.9136 597.444 86.1916 595.764 86.1916 598.396C86.1916 599.32 85.4636 600.02 84.2316 600.02C82.8736 600.02 82.2996 599.208 82.2156 598.396H80.8576C80.8856 600.006 82.2716 601.098 84.2316 601.098ZM89.3544 591.242V601H90.6284V591.242H89.3544ZM92.1977 591.242V592.278H94.8717V601H96.1457V592.278H98.8057V591.242H92.1977ZM105.624 592.278V591.228H100.374V601H105.624V599.95H101.648V596.59H105.204V595.54H101.648V592.278H105.624ZM116.59 591.242L112.558 595.764V591.242H111.284V601H112.558V596.548L116.576 601H118.242L113.776 596.128L118.2 591.242H116.59ZM124.915 592.278V591.228H119.665V601H124.915V599.95H120.939V596.59H124.495V595.54H120.939V592.278H124.915ZM126.031 591.242L129.223 597.318V601H130.497V597.318L133.675 591.242H132.261L129.853 596.184L127.445 591.242H126.031Z" fill="black"/>
<path d="M349.558 604.736H354.328V604.214H350.26V589.778H354.328V589.256H349.558V604.736ZM360.927 602.216C363.123 602.216 364.869 600.956 364.869 598.958C364.869 597.338 363.429 596.276 361.827 595.97V595.898C363.303 595.466 364.437 594.566 364.437 593.054C364.437 591.29 362.871 590.282 360.891 590.282C359.415 590.282 358.209 590.912 357.345 591.686L357.831 592.226C358.551 591.524 359.685 590.966 360.873 590.966C362.493 590.966 363.609 591.812 363.609 593.108C363.609 594.494 362.457 595.61 359.451 595.61V596.312C362.655 596.312 364.041 597.392 364.041 598.976C364.041 600.506 362.691 601.514 360.927 601.514C359.199 601.514 358.083 600.794 357.327 600.038L356.877 600.596C357.669 601.37 358.929 602.216 360.927 602.216ZM367.58 602H375.356V601.28H370.946C370.226 601.28 369.524 601.334 368.786 601.37C372.44 597.986 374.708 595.79 374.708 593.504C374.708 591.56 373.394 590.282 371.144 590.282C369.596 590.282 368.48 591.02 367.526 591.974L368.048 592.478C368.84 591.614 369.902 590.966 371.072 590.966C373.052 590.966 373.916 592.082 373.916 593.522C373.916 595.592 371.828 597.662 367.58 601.496V602ZM378.588 602H381.828C384.564 602 386.22 600.83 386.22 598.544C386.22 596.906 385.14 595.934 383.376 595.682V595.61C384.78 595.25 385.482 594.26 385.482 593.018C385.482 591.038 384.042 590.138 381.594 590.138H378.588V602ZM379.416 595.34V590.84H381.36C383.592 590.84 384.654 591.47 384.654 593.054C384.654 594.566 383.7 595.34 381.27 595.34H379.416ZM379.416 601.298V596.06H381.612C384.042 596.06 385.392 596.852 385.392 598.544C385.392 600.452 384.024 601.298 381.612 601.298H379.416ZM388.679 604.736H393.449V589.256H388.679V589.778H392.747V604.214H388.679V604.736Z" fill="black"/>
<path d="M421.398 592.559L416.441 587.602C416.23 587.391 415.949 587.25 415.633 587.25H410.5C409.234 587.25 408.25 588.27 408.25 589.5V603C408.25 604.266 409.234 605.25 410.5 605.25H419.5C420.73 605.25 421.75 604.266 421.75 603V593.367C421.75 593.051 421.609 592.77 421.398 592.559ZM416.125 588.059L420.941 592.875H416.969C416.477 592.875 416.125 592.523 416.125 592.031V588.059ZM421.188 603C421.188 603.949 420.414 604.688 419.5 604.688H410.5C409.551 604.688 408.812 603.949 408.812 603V589.5C408.812 588.586 409.551 587.812 410.5 587.812H415.562V592.031C415.562 592.84 416.16 593.438 416.969 593.438H421.188V603ZM416.406 596.531C416.406 596.707 416.512 596.812 416.688 596.812H417.531V601.312H416.688C416.512 601.312 416.406 601.453 416.406 601.594C416.406 601.77 416.512 601.875 416.688 601.875H418.938C419.078 601.875 419.219 601.77 419.219 601.594C419.219 601.453 419.078 601.312 418.938 601.312H418.094V596.531C418.094 596.391 417.953 596.25 417.812 596.25H416.688C416.512 596.25 416.406 596.391 416.406 596.531ZM413.312 596.25H412.188C411.379 596.25 410.781 596.883 410.781 597.656V600.469C410.781 601.277 411.379 601.875 412.188 601.875H413.312C414.086 601.875 414.719 601.277 414.719 600.469V597.656C414.719 596.883 414.086 596.25 413.312 596.25ZM414.156 600.469C414.156 600.961 413.77 601.312 413.312 601.312H412.188C411.695 601.312 411.344 600.961 411.344 600.469V597.656C411.344 597.199 411.695 596.812 412.188 596.812H413.312C413.77 596.812 414.156 597.199 414.156 597.656V600.469Z" fill="black"/>
<rect x="309.5" y="880.5" width="381" height="59" rx="9.5" fill="#FFECB5" fill-opacity="0.38"/>
<path d="M333.284 905.242H330.246V915H333.284C336.49 915 338.464 913.166 338.464 910.142C338.464 907.118 336.49 905.242 333.284 905.242ZM333.284 913.95H331.52V906.278H333.284C335.832 906.278 337.162 907.762 337.162 910.142C337.162 912.522 335.832 913.95 333.284 913.95ZM344.568 915.098C347.326 915.098 349.468 913.04 349.468 910.114C349.468 907.188 347.326 905.13 344.568 905.13C341.824 905.13 339.668 907.188 339.668 910.114C339.668 913.04 341.824 915.098 344.568 915.098ZM344.568 913.992C342.51 913.992 340.97 912.494 340.97 910.114C340.97 907.72 342.51 906.236 344.568 906.236C346.626 906.236 348.166 907.72 348.166 910.114C348.166 912.494 346.626 913.992 344.568 913.992ZM351.15 905.312V915H352.424V907.762L355.658 915H356.554L359.774 907.776V915H361.048V905.312H359.69L356.106 913.32L352.522 905.312H351.15ZM369.761 915H371.105L367.591 905.298H366.121L362.593 915H363.937L364.721 912.83H368.977L369.761 915ZM368.613 911.794H365.085L366.849 906.866L368.613 911.794ZM372.642 905.242V915H373.916V905.242H372.642ZM383.76 905.228H382.486V912.984L377.362 905.228H376.088V915H377.362V907.23L382.486 915H383.76V905.228ZM401.068 905.228H399.794V912.984L394.67 905.228H393.396V915H394.67V907.23L399.794 915H401.068V905.228ZM409.792 915H411.136L407.622 905.298H406.152L402.624 915H403.968L404.752 912.83H409.008L409.792 915ZM408.644 911.794H405.116L406.88 906.866L408.644 911.794ZM412.674 905.312V915H413.948V907.762L417.182 915H418.078L421.298 907.776V915H422.572V905.312H421.214L417.63 913.32L414.046 905.312H412.674ZM429.982 906.278V905.228H424.732V915H429.982V913.95H426.006V910.59H429.562V909.54H426.006V906.278H429.982Z" fill="black"/>
<path d="M560.425 916H561.253V904.858H565.375V904.138H556.303V904.858H560.425V916ZM568.068 916H569.13L570.714 910.366C570.93 909.682 571.074 908.998 571.254 908.296H571.308C571.488 908.998 571.632 909.682 571.812 910.366L573.45 916H574.512L576.42 904.12H575.61L574.404 912.238C574.278 913.192 574.152 914.056 574.044 915.046H573.972C573.702 914.056 573.45 913.192 573.198 912.238L571.722 907.216H570.876L569.4 912.238C569.148 913.192 568.896 914.038 568.626 915.046H568.572C568.482 914.038 568.32 913.192 568.212 912.238L566.952 904.12H566.124L568.068 916ZM578.231 916H585.179V915.28H582.119V904.858H585.179V904.138H578.231V904.858H581.291V915.28H578.231V916ZM591.724 916H592.552V904.858H596.674V904.138H587.602V904.858H591.724V916ZM602.157 916H602.985V904.858H607.107V904.138H598.035V904.858H602.157V916ZM609.89 916H617.09V915.28H610.718V910.06H615.938V909.34H610.718V904.858H616.91V904.138H609.89V916ZM620.142 916H620.97V910.546H623.49L626.694 916H627.666L624.39 910.492C626.244 910.24 627.432 909.16 627.432 907.27C627.432 905.002 625.884 904.138 623.526 904.138H620.142V916ZM620.97 909.862V904.84H623.31C625.416 904.84 626.586 905.488 626.586 907.27C626.586 909.016 625.416 909.862 623.31 909.862H620.97ZM633.869 916.216C634.427 916.216 634.949 915.784 634.949 915.046C634.949 914.29 634.427 913.876 633.869 913.876C633.311 913.876 632.789 914.29 632.789 915.046C632.789 915.784 633.311 916.216 633.869 916.216ZM645.166 916.216C646.714 916.216 647.794 915.568 648.712 914.524L648.208 914.002C647.344 914.974 646.444 915.46 645.238 915.46C642.682 915.46 641.062 913.336 641.062 910.042C641.062 906.748 642.682 904.678 645.292 904.678C646.372 904.678 647.236 905.164 647.866 905.884L648.37 905.344C647.74 904.606 646.66 903.922 645.292 903.922C642.25 903.922 640.198 906.28 640.198 910.042C640.198 913.822 642.25 916.216 645.166 916.216ZM654.735 916.216C657.327 916.216 659.163 913.804 659.163 910.024C659.163 906.262 657.327 903.922 654.735 903.922C652.143 903.922 650.307 906.262 650.307 910.024C650.307 913.804 652.143 916.216 654.735 916.216ZM654.735 915.46C652.611 915.46 651.171 913.336 651.171 910.024C651.171 906.73 652.611 904.678 654.735 904.678C656.859 904.678 658.299 906.73 658.299 910.024C658.299 913.336 656.859 915.46 654.735 915.46ZM661.226 916H662.018V907.9C662.018 907.054 661.928 905.902 661.892 905.092H661.928L662.63 907.126L664.826 912.85H665.474L667.706 907.126L668.354 905.092H668.408C668.372 905.902 668.3 907.054 668.3 907.9V916H669.11V904.138H668.012L665.906 909.7L665.204 911.77H665.132L664.394 909.7L662.324 904.138H661.226V916Z" fill="black"/>
<rect x="309.5" y="880.5" width="381" height="59" rx="9.5" stroke="black"/>
<rect x="309" y="300" width="382" height="60" rx="10" fill="#C0C8CF" fill-opacity="0.38"/>
<path d="M330.137 325.242V331.402C330.137 333.936 331.789 335.098 333.805 335.098C335.821 335.098 337.487 333.936 337.487 331.402V325.242H336.213V331.416C336.213 333.208 335.261 333.978 333.819 333.978C332.377 333.978 331.411 333.208 331.411 331.416V325.242H330.137ZM342.706 335.098C344.82 335.098 345.954 333.726 345.954 332.34C345.954 328.728 340.69 330.296 340.69 327.776C340.69 326.726 341.516 326.18 342.566 326.208C343.756 326.222 344.372 326.964 344.456 327.622H345.856C345.702 326.138 344.484 325.116 342.622 325.116C340.69 325.116 339.388 326.208 339.388 327.818C339.388 331.444 344.666 329.764 344.666 332.396C344.666 333.32 343.938 334.02 342.706 334.02C341.348 334.02 340.774 333.208 340.69 332.396H339.332C339.36 334.006 340.746 335.098 342.706 335.098ZM353.079 326.278V325.228H347.829V335H353.079V333.95H349.103V330.59H352.659V329.54H349.103V326.278H353.079ZM360.229 328.112C360.229 329.204 359.599 329.988 358.157 329.988H356.281V326.292H358.157C359.613 326.292 360.229 327.006 360.229 328.112ZM358.157 325.242H355.007V335H356.281V331.01H357.821L360.145 335H361.671L359.221 330.912C360.859 330.548 361.545 329.358 361.545 328.112C361.545 326.516 360.453 325.242 358.157 325.242ZM372.563 325.242L368.531 329.764V325.242H367.257V335H368.531V330.548L372.549 335H374.215L369.749 330.128L374.173 325.242H372.563ZM380.888 326.278V325.228H375.638V335H380.888V333.95H376.912V330.59H380.468V329.54H376.912V326.278H380.888ZM382.003 325.242L385.195 331.318V335H386.469V331.318L389.647 325.242H388.233L385.825 330.184L383.417 325.242H382.003Z" fill="black"/>
<path d="M598.558 338.736H603.328V338.214H599.26V323.778H603.328V323.256H598.558V338.736ZM610.485 336.216C612.447 336.216 614.157 334.704 614.157 332.616C614.157 330.294 612.753 329.052 610.557 329.052C609.225 329.052 608.019 329.682 607.029 330.672C607.029 326.46 608.865 324.984 610.971 324.984C611.907 324.984 612.771 325.308 613.419 325.938L613.905 325.398C613.167 324.732 612.249 324.282 610.971 324.282C608.487 324.282 606.219 325.956 606.219 330.78C606.219 334.272 607.893 336.216 610.485 336.216ZM610.521 335.532C608.325 335.532 607.227 333.912 607.047 331.482C608.199 330.204 609.459 329.736 610.449 329.736C612.375 329.736 613.347 330.798 613.347 332.616C613.347 334.254 612.141 335.532 610.521 335.532ZM622.016 336H622.79V332.562H624.788V331.86H622.79V324.48H622.16L615.86 332.076V332.562H622.016V336ZM616.94 331.86L620.882 327.126C621.26 326.604 621.638 326.1 621.998 325.596H622.106C622.07 326.172 622.052 326.784 622.016 327.342V331.86H616.94ZM627.588 336H630.828C633.564 336 635.22 334.83 635.22 332.544C635.22 330.906 634.14 329.934 632.376 329.682V329.61C633.78 329.25 634.482 328.26 634.482 327.018C634.482 325.038 633.042 324.138 630.594 324.138H627.588V336ZM628.416 329.34V324.84H630.36C632.592 324.84 633.654 325.47 633.654 327.054C633.654 328.566 632.7 329.34 630.27 329.34H628.416ZM628.416 335.298V330.06H630.612C633.042 330.06 634.392 330.852 634.392 332.544C634.392 334.452 633.024 335.298 630.612 335.298H628.416ZM637.679 338.736H642.449V323.256H637.679V323.778H641.747V338.214H637.679V338.736Z" fill="black"/>
<path d="M670.398 326.559L665.441 321.602C665.23 321.391 664.949 321.25 664.633 321.25H659.5C658.234 321.25 657.25 322.27 657.25 323.5V337C657.25 338.266 658.234 339.25 659.5 339.25H668.5C669.73 339.25 670.75 338.266 670.75 337V327.367C670.75 327.051 670.609 326.77 670.398 326.559ZM665.125 322.059L669.941 326.875H665.969C665.477 326.875 665.125 326.523 665.125 326.031V322.059ZM670.188 337C670.188 337.949 669.414 338.688 668.5 338.688H659.5C658.551 338.688 657.812 337.949 657.812 337V323.5C657.812 322.586 658.551 321.812 659.5 321.812H664.562V326.031C664.562 326.84 665.16 327.438 665.969 327.438H670.188V337ZM665.406 330.531C665.406 330.707 665.512 330.812 665.688 330.812H666.531V335.312H665.688C665.512 335.312 665.406 335.453 665.406 335.594C665.406 335.77 665.512 335.875 665.688 335.875H667.938C668.078 335.875 668.219 335.77 668.219 335.594C668.219 335.453 668.078 335.312 667.938 335.312H667.094V330.531C667.094 330.391 666.953 330.25 666.812 330.25H665.688C665.512 330.25 665.406 330.391 665.406 330.531ZM662.312 330.25H661.188C660.379 330.25 659.781 330.883 659.781 331.656V334.469C659.781 335.277 660.379 335.875 661.188 335.875H662.312C663.086 335.875 663.719 335.277 663.719 334.469V331.656C663.719 330.883 663.086 330.25 662.312 330.25ZM663.156 334.469C663.156 334.961 662.77 335.312 662.312 335.312H661.188C660.695 335.312 660.344 334.961 660.344 334.469V331.656C660.344 331.199 660.695 330.812 661.188 330.812H662.312C662.77 330.812 663.156 331.199 663.156 331.656V334.469Z" fill="black"/>
<rect x="558.5" y="60.5" width="381" height="59" rx="9.5" fill="#FFECB5" fill-opacity="0.38"/>
<path d="M582.433 95.098C584.547 95.098 585.681 93.726 585.681 92.34C585.681 88.728 580.417 90.296 580.417 87.776C580.417 86.726 581.243 86.18 582.293 86.208C583.483 86.222 584.099 86.964 584.183 87.622H585.583C585.429 86.138 584.211 85.116 582.349 85.116C580.417 85.116 579.115 86.208 579.115 87.818C579.115 91.444 584.393 89.764 584.393 92.396C584.393 93.32 583.665 94.02 582.433 94.02C581.075 94.02 580.501 93.208 580.417 92.396H579.059C579.087 94.006 580.473 95.098 582.433 95.098ZM592.806 86.278V85.228H587.556V95H592.806V93.95H588.83V90.59H592.386V89.54H588.83V86.278H592.806ZM594.257 90.114C594.257 93.04 596.399 95.084 599.129 95.084C601.243 95.084 602.923 94.034 603.651 92.158H602.125C601.593 93.32 600.557 93.978 599.129 93.978C597.085 93.978 595.559 92.494 595.559 90.114C595.559 87.72 597.085 86.236 599.129 86.236C600.557 86.236 601.593 86.894 602.125 88.07H603.651C602.923 86.18 601.243 85.116 599.129 85.116C596.399 85.116 594.257 87.188 594.257 90.114ZM610.77 88.112C610.77 89.204 610.14 89.988 608.698 89.988H606.822V86.292H608.698C610.154 86.292 610.77 87.006 610.77 88.112ZM608.698 85.242H605.548V95H606.822V91.01H608.362L610.686 95H612.212L609.762 90.912C611.4 90.548 612.086 89.358 612.086 88.112C612.086 86.516 610.994 85.242 608.698 85.242ZM619.315 86.278V85.228H614.065V95H619.315V93.95H615.339V90.59H618.895V89.54H615.339V86.278H619.315ZM620.641 85.242V86.278H623.315V95H624.589V86.278H627.249V85.242H620.641Z" fill="black"/>
<path d="M681.393 96H684.633C687.369 96 689.025 94.83 689.025 92.544C689.025 90.906 687.945 89.934 686.181 89.682V89.61C687.585 89.25 688.287 88.26 688.287 87.018C688.287 85.038 686.847 84.138 684.399 84.138H681.393V96ZM682.221 89.34V84.84H684.165C686.397 84.84 687.459 85.47 687.459 87.054C687.459 88.566 686.505 89.34 684.075 89.34H682.221ZM682.221 95.298V90.06H684.417C686.847 90.06 688.197 90.852 688.197 92.544C688.197 94.452 686.829 95.298 684.417 95.298H682.221ZM693.824 89.016C694.292 87.612 694.724 86.37 695.138 84.912H695.21C695.624 86.37 696.038 87.612 696.524 89.016L697.28 91.23H693.068L693.824 89.016ZM690.584 96H691.412L692.816 91.932H697.514L698.882 96H699.764L695.588 84.138H694.76L690.584 96ZM701.863 96H702.655V88.638C702.655 87.504 702.565 86.424 702.547 85.272H702.583L703.843 87.612L708.469 96H709.351V84.138H708.559V91.428C708.559 92.58 708.649 93.732 708.667 94.866H708.631L707.371 92.526L702.745 84.138H701.863V96ZM714.69 89.016C715.158 87.612 715.59 86.37 716.004 84.912H716.076C716.49 86.37 716.904 87.612 717.39 89.016L718.146 91.23H713.934L714.69 89.016ZM711.45 96H712.278L713.682 91.932H718.38L719.748 96H720.63L716.454 84.138H715.626L711.45 96ZM722.729 96H723.521V88.638C723.521 87.504 723.431 86.424 723.413 85.272H723.449L724.709 87.612L729.335 96H730.217V84.138H729.425V91.428C729.425 92.58 729.515 93.732 729.533 94.866H729.497L728.237 92.526L723.611 84.138H722.729V96ZM735.556 89.016C736.024 87.612 736.456 86.37 736.87 84.912H736.942C737.356 86.37 737.77 87.612 738.256 89.016L739.012 91.23H734.8L735.556 89.016ZM732.316 96H733.144L734.548 91.932H739.246L740.614 96H741.496L737.32 84.138H736.492L732.316 96ZM758.636 96.216C760.184 96.216 761.264 95.568 762.182 94.524L761.678 94.002C760.814 94.974 759.914 95.46 758.708 95.46C756.152 95.46 754.532 93.336 754.532 90.042C754.532 86.748 756.152 84.678 758.762 84.678C759.842 84.678 760.706 85.164 761.336 85.884L761.84 85.344C761.21 84.606 760.13 83.922 758.762 83.922C755.72 83.922 753.668 86.28 753.668 90.042C753.668 93.822 755.72 96.216 758.636 96.216ZM768.205 96.216C770.797 96.216 772.633 93.804 772.633 90.024C772.633 86.262 770.797 83.922 768.205 83.922C765.613 83.922 763.777 86.262 763.777 90.024C763.777 93.804 765.613 96.216 768.205 96.216ZM768.205 95.46C766.081 95.46 764.641 93.336 764.641 90.024C764.641 86.73 766.081 84.678 768.205 84.678C770.329 84.678 771.769 86.73 771.769 90.024C771.769 93.336 770.329 95.46 768.205 95.46ZM775.938 96H782.94V95.28H776.73V84.138H775.938V96ZM789.071 96.216C791.663 96.216 793.499 93.804 793.499 90.024C793.499 86.262 791.663 83.922 789.071 83.922C786.479 83.922 784.643 86.262 784.643 90.024C784.643 93.804 786.479 96.216 789.071 96.216ZM789.071 95.46C786.947 95.46 785.507 93.336 785.507 90.024C785.507 86.73 786.947 84.678 789.071 84.678C791.195 84.678 792.635 86.73 792.635 90.024C792.635 93.336 791.195 95.46 789.071 95.46ZM796.21 96H797.038V90.546H799.558L802.762 96H803.734L800.458 90.492C802.312 90.24 803.5 89.16 803.5 87.27C803.5 85.002 801.952 84.138 799.594 84.138H796.21V96ZM797.038 89.862V84.84H799.378C801.484 84.84 802.654 85.488 802.654 87.27C802.654 89.016 801.484 89.862 799.378 89.862H797.038ZM806.822 96H814.022V95.28H807.65V90.06H812.87V89.34H807.65V84.858H813.842V84.138H806.822V96ZM816.697 96H819.451C823.087 96 824.797 93.624 824.797 90.024C824.797 86.442 823.087 84.138 819.433 84.138H816.697V96ZM817.525 95.298V84.84H819.361C822.547 84.84 823.933 86.946 823.933 90.024C823.933 93.12 822.547 95.298 819.361 95.298H817.525ZM837.563 96H840.317C843.953 96 845.663 93.624 845.663 90.024C845.663 86.442 843.953 84.138 840.299 84.138H837.563V96ZM838.391 95.298V84.84H840.227C843.413 84.84 844.799 86.946 844.799 90.024C844.799 93.12 843.413 95.298 840.227 95.298H838.391ZM851.668 96.216C853.666 96.216 855.466 95.154 855.466 91.554V84.138H854.692V91.464C854.692 94.524 853.288 95.46 851.668 95.46C850.084 95.46 848.698 94.524 848.698 91.464V84.138H847.87V91.554C847.87 95.154 849.688 96.216 851.668 96.216ZM862.965 96.216C864.513 96.216 865.593 95.568 866.511 94.524L866.007 94.002C865.143 94.974 864.243 95.46 863.037 95.46C860.481 95.46 858.861 93.336 858.861 90.042C858.861 86.748 860.481 84.678 863.091 84.678C864.171 84.678 865.035 85.164 865.665 85.884L866.169 85.344C865.539 84.606 864.459 83.922 863.091 83.922C860.049 83.922 857.997 86.28 857.997 90.042C857.997 93.822 860.049 96.216 862.965 96.216ZM869.204 96H870.05V91.914L872.498 89.142L876.458 96H877.412L873.056 88.512L876.926 84.138H875.936L870.086 90.726H870.05V84.138H869.204V96ZM880.267 96H887.269V95.28H881.059V84.138H880.267V96ZM889.926 96H896.874V95.28H893.814V84.858H896.874V84.138H889.926V84.858H892.986V95.28H889.926V96ZM900.089 96H900.881V88.638C900.881 87.504 900.791 86.424 900.773 85.272H900.809L902.069 87.612L906.695 96H907.577V84.138H906.785V91.428C906.785 92.58 906.875 93.732 906.893 94.866H906.857L905.597 92.526L900.971 84.138H900.089V96ZM914.878 96.216C916.408 96.216 917.596 95.658 918.316 94.866V90.168H914.77V90.87H917.506V94.56C916.948 95.136 915.976 95.46 914.932 95.46C912.34 95.46 910.792 93.336 910.792 90.042C910.792 86.748 912.43 84.678 915.04 84.678C916.3 84.678 917.11 85.218 917.704 85.884L918.19 85.344C917.578 84.678 916.606 83.922 915.04 83.922C911.98 83.922 909.928 86.28 909.928 90.042C909.928 93.822 911.926 96.216 914.878 96.216Z" fill="black"/>
<rect x="558.5" y="60.5" width="381" height="59" rx="9.5" stroke="black"/>
<rect x="60.5" y="60.5" width="381" height="59" rx="9.5" fill="#FFECB5" fill-opacity="0.38"/>
<path d="M81.161 85.242V95H82.435V90.604H85.879V89.568H82.435V86.278H86.677V85.242H81.161ZM88.1877 85.242V91.402C88.1877 93.936 89.8397 95.098 91.8557 95.098C93.8717 95.098 95.5377 93.936 95.5377 91.402V85.242H94.2637V91.416C94.2637 93.208 93.3117 93.978 91.8697 93.978C90.4277 93.978 89.4617 93.208 89.4617 91.416V85.242H88.1877ZM98.937 85.242H97.663V95H102.353V93.964H98.937V85.242ZM104.98 85.242H103.706V95H108.396V93.964H104.98V85.242ZM121.153 85.228H119.879V92.984L114.755 85.228H113.481V95H114.755V87.23L119.879 95H121.153V85.228ZM129.877 95H131.221L127.707 85.298H126.237L122.709 95H124.053L124.837 92.83H129.093L129.877 95ZM128.729 91.794H125.201L126.965 86.866L128.729 91.794ZM132.759 85.312V95H134.033V87.762L137.267 95H138.163L141.383 87.776V95H142.657V85.312H141.299L137.715 93.32L134.131 85.312H132.759ZM150.067 86.278V85.228H144.817V95H150.067V93.95H146.091V90.59H149.647V89.54H146.091V86.278H150.067Z" fill="black"/>
<path d="M225.313 96H226.141V90.546H228.661L231.865 96H232.837L229.561 90.492C231.415 90.24 232.603 89.16 232.603 87.27C232.603 85.002 231.055 84.138 228.697 84.138H225.313V96ZM226.141 89.862V84.84H228.481C230.587 84.84 231.757 85.488 231.757 87.27C231.757 89.016 230.587 89.862 228.481 89.862H226.141ZM239.04 96.216C241.632 96.216 243.468 93.804 243.468 90.024C243.468 86.262 241.632 83.922 239.04 83.922C236.448 83.922 234.612 86.262 234.612 90.024C234.612 93.804 236.448 96.216 239.04 96.216ZM239.04 95.46C236.916 95.46 235.476 93.336 235.476 90.024C235.476 86.73 236.916 84.678 239.04 84.678C241.164 84.678 242.604 86.73 242.604 90.024C242.604 93.336 241.164 95.46 239.04 95.46ZM246.125 96H249.365C252.101 96 253.757 94.83 253.757 92.544C253.757 90.906 252.677 89.934 250.913 89.682V89.61C252.317 89.25 253.019 88.26 253.019 87.018C253.019 85.038 251.579 84.138 249.131 84.138H246.125V96ZM246.953 89.34V84.84H248.897C251.129 84.84 252.191 85.47 252.191 87.054C252.191 88.566 251.237 89.34 248.807 89.34H246.953ZM246.953 95.298V90.06H249.149C251.579 90.06 252.929 90.852 252.929 92.544C252.929 94.452 251.561 95.298 249.149 95.298H246.953ZM256.792 96H263.992V95.28H257.62V90.06H262.84V89.34H257.62V84.858H263.812V84.138H256.792V96ZM267.045 96H267.873V90.546H270.393L273.597 96H274.569L271.293 90.492C273.147 90.24 274.335 89.16 274.335 87.27C274.335 85.002 272.787 84.138 270.429 84.138H267.045V96ZM267.873 89.862V84.84H270.213C272.319 84.84 273.489 85.488 273.489 87.27C273.489 89.016 272.319 89.862 270.213 89.862H267.873ZM280.358 96H281.186V84.858H285.308V84.138H276.236V84.858H280.358V96ZM298.938 96H305.94V95.28H299.73V84.138H298.938V96ZM308.957 96H316.157V95.28H309.785V90.06H315.005V89.34H309.785V84.858H315.977V84.138H308.957V96ZM319.39 96H326.59V95.28H320.218V90.06H325.438V89.34H320.218V84.858H326.41V84.138H319.39V96ZM339.427 96H340.219V87.9C340.219 87.054 340.129 85.902 340.093 85.092H340.129L340.831 87.126L343.027 92.85H343.675L345.907 87.126L346.555 85.092H346.609C346.573 85.902 346.501 87.054 346.501 87.9V96H347.311V84.138H346.213L344.107 89.7L343.405 91.77H343.333L342.595 89.7L340.525 84.138H339.427V96ZM350.328 96H357.276V95.28H354.216V84.858H357.276V84.138H350.328V84.858H353.388V95.28H350.328V96ZM363.821 96H364.649V84.858H368.771V84.138H359.699V84.858H363.821V96ZM375.532 96.216C377.08 96.216 378.16 95.568 379.078 94.524L378.574 94.002C377.71 94.974 376.81 95.46 375.604 95.46C373.048 95.46 371.428 93.336 371.428 90.042C371.428 86.748 373.048 84.678 375.658 84.678C376.738 84.678 377.602 85.164 378.232 85.884L378.736 85.344C378.106 84.606 377.026 83.922 375.658 83.922C372.616 83.922 370.564 86.28 370.564 90.042C370.564 93.822 372.616 96.216 375.532 96.216ZM381.303 96H382.131V90.06H388.071V96H388.899V84.138H388.071V89.34H382.131V84.138H381.303V96ZM392.42 96H399.62V95.28H393.248V90.06H398.468V89.34H393.248V84.858H399.44V84.138H392.42V96ZM403.267 96H410.269V95.28H404.059V84.138H403.267V96ZM413.7 96H420.702V95.28H414.492V84.138H413.7V96Z" fill="black"/>
<rect x="60.5" y="60.5" width="381" height="59" rx="9.5" stroke="black"/>
<path d="M268.114 710.276C271.04 710.276 273.084 708.134 273.084 705.404C273.084 703.29 272.034 701.61 270.158 700.882L270.158 702.408C271.32 702.94 271.978 703.976 271.978 705.404C271.978 707.448 270.494 708.974 268.114 708.974C265.72 708.974 264.236 707.448 264.236 705.404C264.236 703.976 264.894 702.94 266.07 702.408L266.07 700.882C264.18 701.61 263.116 703.29 263.116 705.404C263.116 708.134 265.188 710.276 268.114 710.276ZM263.242 698.985L273 698.985L273 697.711L263.242 697.711L263.242 698.985ZM267.876 692.39L267.876 694.266L264.292 694.266L264.292 692.39C264.292 690.934 264.964 690.318 266.098 690.318C267.19 690.318 267.876 690.934 267.876 692.39ZM266.098 689.016C264.502 689.016 263.242 690.094 263.242 692.39L263.242 695.54L273 695.54L273 694.266L268.926 694.266L268.926 692.39C268.926 689.968 267.582 689.016 266.098 689.016ZM263.242 681.189L267.526 681.189L267.526 686.159L263.242 686.159L263.242 687.433L273 687.433L273 686.159L268.576 686.159L268.576 681.189L273 681.189L273 679.915L263.242 679.915L263.242 681.189ZM264.278 672.489L263.228 672.489L263.228 677.739L273 677.739L273 672.489L271.95 672.489L271.95 676.465L268.59 676.465L268.59 672.909L267.54 672.909L267.54 676.465L264.278 676.465L264.278 672.489ZM266.112 665.34C267.204 665.34 267.988 665.97 267.988 667.412L267.988 669.288L264.292 669.288L264.292 667.412C264.292 665.956 265.006 665.34 266.112 665.34ZM263.242 667.412L263.242 670.562L273 670.562L273 669.288L269.01 669.288L269.01 667.748L273 665.424L273 663.898L268.912 666.348C268.548 664.71 267.358 664.024 266.112 664.024C264.516 664.024 263.242 665.116 263.242 667.412Z" fill="black"/>
<path d="M250.646 736.354C250.842 736.549 251.158 736.549 251.354 736.354L254.536 733.172C254.731 732.976 254.731 732.66 254.536 732.464C254.34 732.269 254.024 732.269 253.828 732.464L251 735.293L248.172 732.464C247.976 732.269 247.66 732.269 247.464 732.464C247.269 732.66 247.269 732.976 247.464 733.172L250.646 736.354ZM250.5 636V736H251.5V636H250.5Z" fill="black"/>
<path d="M51.2612 684.876H49.3852V681.292H51.2612C52.7172 681.292 53.3332 681.964 53.3332 683.098C53.3332 684.19 52.7172 684.876 51.2612 684.876ZM54.6352 683.098C54.6352 681.502 53.5572 680.242 51.2612 680.242H48.1112V690H49.3852V685.926H51.2612C53.6832 685.926 54.6352 684.582 54.6352 683.098ZM62.7706 690H64.1146L60.6006 680.298H59.1306L55.6026 690H56.9466L57.7306 687.83H61.9866L62.7706 690ZM61.6226 686.794H58.0946L59.8586 681.866L61.6226 686.794ZM68.7462 690.098C70.8602 690.098 71.9942 688.726 71.9942 687.34C71.9942 683.728 66.7302 685.296 66.7302 682.776C66.7302 681.726 67.5562 681.18 68.6062 681.208C69.7962 681.222 70.4122 681.964 70.4962 682.622H71.8962C71.7422 681.138 70.5242 680.116 68.6622 680.116C66.7302 680.116 65.4282 681.208 65.4282 682.818C65.4282 686.444 70.7062 684.764 70.7062 687.396C70.7062 688.32 69.9782 689.02 68.7462 689.02C67.3882 689.02 66.8142 688.208 66.7302 687.396H65.3722C65.4002 689.006 66.7862 690.098 68.7462 690.098ZM76.963 690.098C79.077 690.098 80.211 688.726 80.211 687.34C80.211 683.728 74.947 685.296 74.947 682.776C74.947 681.726 75.773 681.18 76.823 681.208C78.013 681.222 78.629 681.964 78.713 682.622H80.113C79.959 681.138 78.741 680.116 76.879 680.116C74.947 680.116 73.645 681.208 73.645 682.818C73.645 686.444 78.923 684.764 78.923 687.396C78.923 688.32 78.195 689.02 76.963 689.02C75.605 689.02 75.031 688.208 74.947 687.396H73.589C73.617 689.006 75.003 690.098 76.963 690.098ZM81.3298 680.242L84.0598 690.014L85.4738 690L87.8258 682.146L90.0938 690H91.5218L94.3498 680.242H92.9778L90.8358 688.488L88.5958 680.242H87.1678L84.8158 688.516L82.6878 680.242H81.3298ZM100.168 690.098C102.926 690.098 105.068 688.04 105.068 685.114C105.068 682.188 102.926 680.13 100.168 680.13C97.424 680.13 95.268 682.188 95.268 685.114C95.268 688.04 97.424 690.098 100.168 690.098ZM100.168 688.992C98.11 688.992 96.57 687.494 96.57 685.114C96.57 682.72 98.11 681.236 100.168 681.236C102.226 681.236 103.766 682.72 103.766 685.114C103.766 687.494 102.226 688.992 100.168 688.992ZM111.972 683.112C111.972 684.204 111.342 684.988 109.9 684.988H108.024V681.292H109.9C111.356 681.292 111.972 682.006 111.972 683.112ZM109.9 680.242H106.75V690H108.024V686.01H109.564L111.888 690H113.414L110.964 685.912C112.602 685.548 113.288 684.358 113.288 683.112C113.288 681.516 112.196 680.242 109.9 680.242ZM118.305 680.242H115.267V690H118.305C121.511 690 123.485 688.166 123.485 685.142C123.485 682.118 121.511 680.242 118.305 680.242ZM118.305 688.95H116.541V681.278H118.305C120.853 681.278 122.183 682.762 122.183 685.142C122.183 687.522 120.853 688.95 118.305 688.95ZM128.296 680.242V681.278H130.97V690H132.244V681.278H134.904V680.242H128.296ZM141.723 681.278V680.228H136.473V690H141.723V688.95H137.747V685.59H141.303V684.54H137.747V681.278H141.723ZM143.65 680.312V690H144.924V682.762L148.158 690H149.054L152.274 682.776V690H153.548V680.312H152.19L148.606 688.32L145.022 680.312H143.65ZM158.859 684.876H156.983V681.292H158.859C160.315 681.292 160.931 681.964 160.931 683.098C160.931 684.19 160.315 684.876 158.859 684.876ZM162.233 683.098C162.233 681.502 161.155 680.242 158.859 680.242H155.709V690H156.983V685.926H158.859C161.281 685.926 162.233 684.582 162.233 683.098ZM165.09 680.242H163.816V690H168.506V688.964H165.09V680.242ZM176.411 690H177.755L174.241 680.298H172.771L169.243 690H170.587L171.371 687.83H175.627L176.411 690ZM175.263 686.794H171.735L173.499 681.866L175.263 686.794ZM178.691 680.242V681.278H181.365V690H182.639V681.278H185.299V680.242H178.691ZM192.117 681.278V680.228H186.867V690H192.117V688.95H188.141V685.59H191.697V684.54H188.141V681.278H192.117Z" fill="black"/>
<path d="M241.354 686.354C241.549 686.158 241.549 685.842 241.354 685.646L238.172 682.464C237.976 682.269 237.66 682.269 237.464 682.464C237.269 682.66 237.269 682.976 237.464 683.172L240.293 686L237.464 688.828C237.269 689.024 237.269 689.34 237.464 689.536C237.66 689.731 237.976 689.731 238.172 689.536L241.354 686.354ZM203 686.5L241 686.5L241 685.5L203 685.5L203 686.5Z" fill="black"/>
<line x1="500.5" y1="370" x2="500.5" y2="870" stroke="black"/>
<path d="M451.646 595.646C451.451 595.842 451.451 596.158 451.646 596.354L454.828 599.536C455.024 599.731 455.34 599.731 455.536 599.536C455.731 599.34 455.731 599.024 455.536 598.828L452.707 596L455.536 593.172C455.731 592.976 455.731 592.66 455.536 592.464C455.34 592.269 455.024 592.269 454.828 592.464L451.646 595.646ZM500 595.5L452 595.5L452 596.5L500 596.5L500 595.5Z" fill="black"/>
<path d="M512.242 640.427L516.526 640.427L516.526 645.397L512.242 645.397L512.242 646.671L522 646.671L522 645.397L517.576 645.397L517.576 640.427L522 640.427L522 639.153L512.242 639.153L512.242 640.427ZM512.312 636.978L522 636.978L522 635.704L514.762 635.704L522 632.47L522 631.574L514.776 628.354L522 628.354L522 627.08L512.312 627.08L512.312 628.438L520.32 632.022L512.312 635.606L512.312 636.978ZM522 618.367L522 617.023L512.298 620.537L512.298 622.007L522 625.535L522 624.191L519.83 623.407L519.83 619.151L522 618.367ZM518.794 619.515L518.794 623.043L513.866 621.279L518.794 619.515ZM517.114 615.961C520.04 615.961 522.084 613.819 522.084 611.089C522.084 608.975 521.034 607.295 519.158 606.567L519.158 608.093C520.32 608.625 520.978 609.661 520.978 611.089C520.978 613.133 519.494 614.659 517.114 614.659C514.72 614.659 513.236 613.133 513.236 611.089C513.236 609.661 513.894 608.625 515.07 608.093L515.07 606.567C513.18 607.295 512.116 608.975 512.116 611.089C512.116 613.819 514.188 615.961 517.114 615.961ZM516.33 604.937L517.408 604.937L517.408 599.351L516.33 599.351L516.33 604.937ZM522.098 593.866C522.098 591.752 520.726 590.618 519.34 590.618C515.728 590.618 517.296 595.882 514.776 595.882C513.726 595.882 513.18 595.056 513.208 594.006C513.222 592.816 513.964 592.2 514.622 592.116L514.622 590.716C513.138 590.87 512.116 592.088 512.116 593.95C512.116 595.882 513.208 597.184 514.818 597.184C518.444 597.184 516.764 591.906 519.396 591.906C520.32 591.906 521.02 592.634 521.02 593.866C521.02 595.224 520.208 595.798 519.396 595.882L519.396 597.24C521.006 597.212 522.098 595.826 522.098 593.866ZM512.242 582.499L516.526 582.499L516.526 587.469L512.242 587.469L512.242 588.743L522 588.743L522 587.469L517.576 587.469L517.576 582.499L522 582.499L522 581.225L512.242 581.225L512.242 582.499ZM522 572.498L522 571.154L512.298 574.668L512.298 576.138L522 579.666L522 578.322L519.83 577.538L519.83 573.282L522 572.498ZM518.794 573.646L518.794 577.174L513.866 575.41L518.794 573.646ZM521.09 569.896L522 569.896L522 563.162L520.936 563.162L520.936 568.034L518.976 566.004C517.114 564.086 515.994 563.428 514.734 563.428C513.012 563.428 511.85 564.604 511.85 566.592C511.85 568.398 512.97 569.812 515.196 569.854L515.196 568.622C513.852 568.594 512.942 567.894 512.942 566.606C512.942 565.318 513.684 564.716 514.734 564.716C515.77 564.716 516.666 565.318 518.262 566.97L521.09 569.896ZM511.864 555.032L511.864 561.122L517.576 561.122L517.576 559.918C516.778 559.582 516.246 558.84 516.246 557.818C516.246 556.348 517.086 555.606 518.528 555.606C519.914 555.606 520.95 556.292 520.95 557.832C520.95 559.022 520.32 559.848 519.256 560.086L519.256 561.332C520.894 561.08 522.028 559.862 522.028 557.846C522.028 555.48 520.46 554.388 518.5 554.388C516.932 554.388 515.154 555.172 515.154 557.636C515.154 558.63 515.602 559.526 516.176 559.946L512.984 559.946L512.984 555.032L511.864 555.032ZM522.126 549.279C522.126 547.263 520.698 545.849 518.724 545.849C516.778 545.849 515.434 547.165 515.434 549.125C515.434 549.559 515.504 549.965 515.644 550.329L511.878 547.711L511.878 549.097L515.644 551.673C516.722 552.415 517.702 552.751 518.696 552.751C520.642 552.751 522.126 551.379 522.126 549.279ZM518.71 551.589C517.324 551.589 516.386 550.693 516.386 549.279C516.386 547.865 517.324 547.011 518.724 547.011C520.124 547.011 521.062 547.865 521.062 549.279C521.062 550.693 520.124 551.589 518.71 551.589Z" fill="black"/>
<path d="M558.912 441.114C558.912 444.04 561.054 446.084 563.784 446.084C565.898 446.084 567.578 445.034 568.306 443.158H566.78C566.248 444.32 565.212 444.978 563.784 444.978C561.74 444.978 560.214 443.494 560.214 441.114C560.214 438.72 561.74 437.236 563.784 437.236C565.212 437.236 566.248 437.894 566.78 439.07H568.306C567.578 437.18 565.898 436.116 563.784 436.116C561.054 436.116 558.912 438.188 558.912 441.114ZM574.626 446.098C577.384 446.098 579.526 444.04 579.526 441.114C579.526 438.188 577.384 436.13 574.626 436.13C571.882 436.13 569.726 438.188 569.726 441.114C569.726 444.04 571.882 446.098 574.626 446.098ZM574.626 444.992C572.568 444.992 571.028 443.494 571.028 441.114C571.028 438.72 572.568 437.236 574.626 437.236C576.684 437.236 578.224 438.72 578.224 441.114C578.224 443.494 576.684 444.992 574.626 444.992ZM581.18 436.242V442.402C581.18 444.936 582.832 446.098 584.848 446.098C586.864 446.098 588.53 444.936 588.53 442.402V436.242H587.256V442.416C587.256 444.208 586.304 444.978 584.862 444.978C583.42 444.978 582.454 444.208 582.454 442.416V436.242H581.18ZM598.327 436.228H597.053V443.984L591.929 436.228H590.655V446H591.929V438.23L597.053 446H598.327V436.228ZM599.897 436.242V437.278H602.571V446H603.845V437.278H606.505V436.242H599.897ZM613.323 437.278V436.228H608.073V446H613.323V444.95H609.347V441.59H612.903V440.54H609.347V437.278H613.323ZM620.473 439.112C620.473 440.204 619.843 440.988 618.401 440.988H616.525V437.292H618.401C619.857 437.292 620.473 438.006 620.473 439.112ZM618.401 436.242H615.251V446H616.525V442.01H618.065L620.389 446H621.915L619.465 441.912C621.103 441.548 621.789 440.358 621.789 439.112C621.789 437.516 620.697 436.242 618.401 436.242Z" fill="black"/>
<path d="M509.646 440.646C509.451 440.842 509.451 441.158 509.646 441.354L512.828 444.536C513.024 444.731 513.34 444.731 513.536 444.536C513.731 444.34 513.731 444.024 513.536 443.828L510.707 441L513.536 438.172C513.731 437.976 513.731 437.66 513.536 437.464C513.34 437.269 513.024 437.269 512.828 437.464L509.646 440.646ZM548 440.5H510V441.5H548V440.5Z" fill="black"/>
<path d="M562.282 796.876H560.406V793.292H562.282C563.738 793.292 564.354 793.964 564.354 795.098C564.354 796.19 563.738 796.876 562.282 796.876ZM565.656 795.098C565.656 793.502 564.578 792.242 562.282 792.242H559.132V802H560.406V797.926H562.282C564.704 797.926 565.656 796.582 565.656 795.098ZM567.211 792.242V798.402C567.211 800.936 568.863 802.098 570.879 802.098C572.895 802.098 574.561 800.936 574.561 798.402V792.242H573.287V798.416C573.287 800.208 572.335 800.978 570.893 800.978C569.451 800.978 568.485 800.208 568.485 798.416V792.242H567.211ZM581.908 795.112C581.908 796.204 581.278 796.988 579.836 796.988H577.96V793.292H579.836C581.292 793.292 581.908 794.006 581.908 795.112ZM579.836 792.242H576.686V802H577.96V798.01H579.5L581.824 802H583.35L580.9 797.912C582.538 797.548 583.224 796.358 583.224 795.112C583.224 793.516 582.132 792.242 579.836 792.242ZM588.354 796.876H586.478V793.292H588.354C589.81 793.292 590.426 793.964 590.426 795.098C590.426 796.19 589.81 796.876 588.354 796.876ZM591.728 795.098C591.728 793.502 590.65 792.242 588.354 792.242H585.204V802H586.478V797.926H588.354C590.776 797.926 591.728 796.582 591.728 795.098ZM597.735 802.098C600.493 802.098 602.635 800.04 602.635 797.114C602.635 794.188 600.493 792.13 597.735 792.13C594.991 792.13 592.835 794.188 592.835 797.114C592.835 800.04 594.991 802.098 597.735 802.098ZM597.735 800.992C595.677 800.992 594.137 799.494 594.137 797.114C594.137 794.72 595.677 793.236 597.735 793.236C599.793 793.236 601.333 794.72 601.333 797.114C601.333 799.494 599.793 800.992 597.735 800.992ZM607.411 802.098C609.525 802.098 610.659 800.726 610.659 799.34C610.659 795.728 605.395 797.296 605.395 794.776C605.395 793.726 606.221 793.18 607.271 793.208C608.461 793.222 609.077 793.964 609.161 794.622H610.561C610.407 793.138 609.189 792.116 607.327 792.116C605.395 792.116 604.093 793.208 604.093 794.818C604.093 798.444 609.371 796.764 609.371 799.396C609.371 800.32 608.643 801.02 607.411 801.02C606.053 801.02 605.479 800.208 605.395 799.396H604.037C604.065 801.006 605.451 802.098 607.411 802.098ZM617.784 793.278V792.228H612.534V802H617.784V800.95H613.808V797.59H617.364V796.54H613.808V793.278H617.784ZM623.444 792.242V802H624.718V792.242H623.444ZM629.928 792.242H626.89V802H629.928C633.134 802 635.108 800.166 635.108 797.142C635.108 794.118 633.134 792.242 629.928 792.242ZM629.928 800.95H628.164V793.278H629.928C632.476 793.278 633.806 794.762 633.806 797.142C633.806 799.522 632.476 800.95 629.928 800.95ZM642.038 793.278V792.228H636.788V802H642.038V800.95H638.062V797.59H641.618V796.54H638.062V793.278H642.038ZM651.638 792.228H650.364V799.984L645.24 792.228H643.966V802H645.24V794.23L650.364 802H651.638V792.228ZM653.207 792.242V793.278H655.881V802H657.155V793.278H659.815V792.242H653.207ZM661.384 792.242V802H662.658V792.242H661.384ZM664.829 792.242V802H666.103V797.604H669.547V796.568H666.103V793.278H670.345V792.242H664.829ZM671.884 792.242V802H673.158V792.242H671.884ZM680.579 793.278V792.228H675.329V802H680.579V800.95H676.603V797.59H680.159V796.54H676.603V793.278H680.579ZM687.729 795.112C687.729 796.204 687.099 796.988 685.657 796.988H683.781V793.292H685.657C687.113 793.292 687.729 794.006 687.729 795.112ZM685.657 792.242H682.507V802H683.781V798.01H685.321L687.645 802H689.171L686.721 797.912C688.359 797.548 689.045 796.358 689.045 795.112C689.045 793.516 687.953 792.242 685.657 792.242Z" fill="black"/>
<path d="M509.646 796.646C509.451 796.842 509.451 797.158 509.646 797.354L512.828 800.536C513.024 800.731 513.34 800.731 513.536 800.536C513.731 800.34 513.731 800.024 513.536 799.828L510.707 797L513.536 794.172C513.731 793.976 513.731 793.66 513.536 793.464C513.34 793.269 513.024 793.269 512.828 793.464L509.646 796.646ZM548 796.5H510V797.5H548V796.5Z" fill="black"/>
<line x1="452" y1="89.5" x2="548" y2="89.5" stroke="black"/>
<path d="M499.646 290.354C499.842 290.549 500.158 290.549 500.354 290.354L503.536 287.172C503.731 286.976 503.731 286.66 503.536 286.464C503.34 286.269 503.024 286.269 502.828 286.464L500 289.293L497.172 286.464C496.976 286.269 496.66 286.269 496.464 286.464C496.269 286.66 496.269 286.976 496.464 287.172L499.646 290.354ZM499.5 90L499.5 290H500.5L500.5 90H499.5Z" fill="black"/>
<path d="M477.242 226.342L481.764 230.374H477.242V231.648H487V230.374H482.548L487 226.356V224.69L482.128 229.156L477.242 224.732V226.342ZM477.242 220.229V223.267H487V220.229C487 217.023 485.166 215.049 482.142 215.049C479.118 215.049 477.242 217.023 477.242 220.229ZM485.95 220.229V221.993H478.278V220.229C478.278 217.681 479.762 216.351 482.142 216.351C484.522 216.351 485.95 217.681 485.95 220.229ZM477.242 213.368H487V212.094H482.604V208.65H481.568V212.094H478.278V207.852H477.242V213.368ZM481.33 206.58H482.408V200.994H481.33V206.58ZM487.098 195.509C487.098 193.395 485.726 192.261 484.34 192.261C480.728 192.261 482.296 197.525 479.776 197.525C478.726 197.525 478.18 196.699 478.208 195.649C478.222 194.459 478.964 193.843 479.622 193.759V192.359C478.138 192.513 477.116 193.731 477.116 195.593C477.116 197.525 478.208 198.827 479.818 198.827C483.444 198.827 481.764 193.549 484.396 193.549C485.32 193.549 486.02 194.277 486.02 195.509C486.02 196.867 485.208 197.441 484.396 197.525V198.883C486.006 198.855 487.098 197.469 487.098 195.509ZM482.114 190.862C485.04 190.862 487.084 188.72 487.084 185.99C487.084 183.876 486.034 182.196 484.158 181.468V182.994C485.32 183.526 485.978 184.562 485.978 185.99C485.978 188.034 484.494 189.56 482.114 189.56C479.72 189.56 478.236 188.034 478.236 185.99C478.236 184.562 478.894 183.526 480.07 182.994V181.468C478.18 182.196 477.116 183.876 477.116 185.99C477.116 188.72 479.188 190.862 482.114 190.862ZM480.112 174.349C481.204 174.349 481.988 174.979 481.988 176.421V178.297H478.292V176.421C478.292 174.965 479.006 174.349 480.112 174.349ZM477.242 176.421V179.571H487V178.297H483.01V176.757L487 174.433V172.907L482.912 175.357C482.548 173.719 481.358 173.033 480.112 173.033C478.516 173.033 477.242 174.125 477.242 176.421ZM477.242 171.866L483.318 168.674H487V167.4H483.318L477.242 164.222V165.636L482.184 168.044L477.242 170.452V171.866ZM481.876 159.728V161.604H478.292V159.728C478.292 158.272 478.964 157.656 480.098 157.656C481.19 157.656 481.876 158.272 481.876 159.728ZM480.098 156.354C478.502 156.354 477.242 157.432 477.242 159.728V162.878H487V161.604H482.926V159.728C482.926 157.306 481.582 156.354 480.098 156.354ZM477.242 155.373H478.278V152.699H487V151.425H478.278V148.765H477.242V155.373Z" fill="black"/>
<path d="M565.64 195H566.984L563.47 185.298H562L558.472 195H559.816L560.6 192.83H564.856L565.64 195ZM564.492 191.794H560.964L562.728 186.866L564.492 191.794ZM569.795 185.242H568.521V195H573.211V193.964H569.795V185.242ZM583.482 188.07C582.754 186.194 581.046 185.13 578.988 185.13C576.244 185.13 574.088 187.188 574.088 190.114C574.088 193.04 576.244 195.084 578.988 195.084C581.634 195.084 583.552 193.138 583.776 190.716V189.736H578.526V190.772H582.418C582.222 192.704 580.906 193.936 578.988 193.936C576.93 193.936 575.39 192.452 575.39 190.114C575.39 187.762 576.93 186.278 578.988 186.278C580.36 186.278 581.424 186.936 581.956 188.07H583.482ZM589.885 195.098C592.643 195.098 594.785 193.04 594.785 190.114C594.785 187.188 592.643 185.13 589.885 185.13C587.141 185.13 584.985 187.188 584.985 190.114C584.985 193.04 587.141 195.098 589.885 195.098ZM589.885 193.992C587.827 193.992 586.287 192.494 586.287 190.114C586.287 187.72 587.827 186.236 589.885 186.236C591.943 186.236 593.483 187.72 593.483 190.114C593.483 192.494 591.943 193.992 589.885 193.992ZM601.689 188.112C601.689 189.204 601.059 189.988 599.617 189.988H597.741V186.292H599.617C601.073 186.292 601.689 187.006 601.689 188.112ZM599.617 185.242H596.467V195H597.741V191.01H599.281L601.605 195H603.131L600.681 190.912C602.319 190.548 603.005 189.358 603.005 188.112C603.005 186.516 601.913 185.242 599.617 185.242ZM604.984 185.242V195H606.258V185.242H604.984ZM607.828 185.242V186.278H610.502V195H611.776V186.278H614.436V185.242H607.828ZM622.248 185.242V189.526H617.278V185.242H616.004V195H617.278V190.576H622.248V195H623.522V185.242H622.248ZM625.697 185.312V195H626.971V187.762L630.205 195H631.101L634.321 187.776V195H635.595V185.312H634.237L630.653 193.32L627.069 185.312H625.697ZM641.488 185.242V195H642.762V185.242H641.488ZM647.971 185.242H644.933V195H647.971C651.177 195 653.151 193.166 653.151 190.142C653.151 187.118 651.177 185.242 647.971 185.242ZM647.971 193.95H646.207V186.278H647.971C650.519 186.278 651.849 187.762 651.849 190.142C651.849 192.522 650.519 193.95 647.971 193.95ZM660.082 186.278V185.228H654.832V195H660.082V193.95H656.106V190.59H659.662V189.54H656.106V186.278H660.082ZM669.682 185.228H668.408V192.984L663.284 185.228H662.01V195H663.284V187.23L668.408 195H669.682V185.228ZM671.251 185.242V186.278H673.925V195H675.199V186.278H677.859V185.242H671.251ZM679.428 185.242V195H680.702V185.242H679.428ZM682.873 185.242V195H684.147V190.604H687.591V189.568H684.147V186.278H688.389V185.242H682.873ZM689.928 185.242V195H691.202V185.242H689.928ZM698.623 186.278V185.228H693.373V195H698.623V193.95H694.647V190.59H698.203V189.54H694.647V186.278H698.623ZM705.773 188.112C705.773 189.204 705.143 189.988 703.701 189.988H701.825V186.292H703.701C705.157 186.292 705.773 187.006 705.773 188.112ZM703.701 185.242H700.551V195H701.825V191.01H703.365L705.689 195H707.215L704.765 190.912C706.403 190.548 707.089 189.358 707.089 188.112C707.089 186.516 705.997 185.242 703.701 185.242Z" fill="black"/>
<path d="M509.646 189.646C509.451 189.842 509.451 190.158 509.646 190.354L512.828 193.536C513.024 193.731 513.34 193.731 513.536 193.536C513.731 193.34 513.731 193.024 513.536 192.828L510.707 190L513.536 187.172C513.731 186.976 513.731 186.66 513.536 186.464C513.34 186.269 513.024 186.269 512.828 186.464L509.646 189.646ZM548 189.5H510V190.5H548V189.5Z" fill="black"/>
<path d="M353.187 994.098C355.301 994.098 356.435 992.726 356.435 991.34C356.435 987.728 351.171 989.296 351.171 986.776C351.171 985.726 351.997 985.18 353.047 985.208C354.237 985.222 354.853 985.964 354.937 986.622H356.337C356.183 985.138 354.965 984.116 353.103 984.116C351.171 984.116 349.869 985.208 349.869 986.818C349.869 990.444 355.147 988.764 355.147 991.396C355.147 992.32 354.419 993.02 353.187 993.02C351.829 993.02 351.255 992.208 351.171 991.396H349.813C349.841 993.006 351.227 994.098 353.187 994.098ZM361.459 988.876H359.583V985.292H361.459C362.915 985.292 363.531 985.964 363.531 987.098C363.531 988.19 362.915 988.876 361.459 988.876ZM364.833 987.098C364.833 985.502 363.755 984.242 361.459 984.242H358.309V994H359.583V989.926H361.459C363.881 989.926 364.833 988.582 364.833 987.098ZM371.667 985.278V984.228H366.417V994H371.667V992.95H367.691V989.59H371.247V988.54H367.691V985.278H371.667ZM373.119 989.114C373.119 992.04 375.261 994.084 377.991 994.084C380.105 994.084 381.785 993.034 382.513 991.158H380.987C380.455 992.32 379.419 992.978 377.991 992.978C375.947 992.978 374.421 991.494 374.421 989.114C374.421 986.72 375.947 985.236 377.991 985.236C379.419 985.236 380.455 985.894 380.987 987.07H382.513C381.785 985.18 380.105 984.116 377.991 984.116C375.261 984.116 373.119 986.188 373.119 989.114ZM383.807 984.242V985.278H386.481V994H387.755V985.278H390.415V984.242H383.807ZM397.205 987.112C397.205 988.204 396.575 988.988 395.133 988.988H393.257V985.292H395.133C396.589 985.292 397.205 986.006 397.205 987.112ZM395.133 984.242H391.983V994H393.257V990.01H394.797L397.121 994H398.647L396.197 989.912C397.835 989.548 398.521 988.358 398.521 987.112C398.521 985.516 397.429 984.242 395.133 984.242ZM405.751 985.278V984.228H400.501V994H405.751V992.95H401.775V989.59H405.331V988.54H401.775V985.278H405.751ZM408.071 994.532V995.708H415.519V994.532H408.071ZM424.666 984.242L421.6 992.656L418.534 984.242H417.176L420.858 994H422.328L426.01 984.242H424.666ZM430.501 994.07C432.629 994.07 433.931 992.838 433.931 990.906C433.931 988.932 432.713 987.826 430.669 987.784L433.469 984.844V983.864H427.645V984.928H431.943L429.143 987.882V988.792H430.571C431.859 988.792 432.657 989.576 432.657 990.906C432.657 992.208 431.831 993.006 430.529 993.006C429.185 993.006 428.457 992.166 428.345 991.088H427.071C427.225 993.048 428.625 994.07 430.501 994.07ZM436.207 994.532V995.708H443.655V994.532H436.207ZM446.083 984.312V994H447.357V986.762L450.591 994H451.487L454.707 986.776V994H455.981V984.312H454.623L451.039 992.32L447.455 984.312H446.083ZM464.693 994H466.037L462.523 984.298H461.053L457.525 994H458.869L459.653 991.83H463.909L464.693 994ZM463.545 990.794H460.017L461.781 985.866L463.545 990.794ZM474.127 994H475.471L471.957 984.298H470.487L466.959 994H468.303L469.087 991.83H473.343L474.127 994ZM472.979 990.794H469.451L471.215 985.866L472.979 990.794ZM482.231 987.112C482.231 988.204 481.601 988.988 480.159 988.988H478.283V985.292H480.159C481.615 985.292 482.231 986.006 482.231 987.112ZM480.159 984.242H477.009V994H478.283V990.01H479.823L482.147 994H483.673L481.223 989.912C482.861 989.548 483.547 988.358 483.547 987.112C483.547 985.516 482.455 984.242 480.159 984.242ZM484.924 984.242V985.278H487.598V994H488.872V985.278H491.532V984.242H484.924ZM498.35 985.278V984.228H493.1V994H498.35V992.95H494.374V989.59H497.93V988.54H494.374V985.278H498.35ZM507.95 984.228H506.676V991.984L501.552 984.228H500.278V994H501.552V986.23L506.676 994H507.95V984.228ZM510.514 994.532V995.708H517.962V994.532H510.514ZM525.934 991.256C525.934 992.32 525.178 992.95 523.918 992.95H521.664V989.506H523.876C525.122 989.506 525.934 990.178 525.934 991.256ZM525.682 986.874C525.682 987.868 524.996 988.456 523.806 988.456H521.664V985.292H523.778C525.024 985.292 525.682 985.908 525.682 986.874ZM527.208 991.382C527.208 990.178 526.34 989.156 525.276 988.974C526.214 988.666 526.984 987.952 526.984 986.72C526.984 985.362 525.948 984.242 523.89 984.242H520.39V994H524.03C526.046 994 527.208 992.852 527.208 991.382ZM528.975 984.242V994H530.249V984.242H528.975ZM533.695 984.242H532.421V994H537.111V992.964H533.695V984.242ZM539.738 984.242H538.464V994H543.154V992.964H539.738V984.242ZM549.757 985.278V984.228H544.507V994H549.757V992.95H545.781V989.59H549.337V988.54H545.781V985.278H549.757ZM551.684 984.312V994H552.958V986.762L556.192 994H557.088L560.308 986.776V994H561.582V984.312H560.224L556.64 992.32L553.056 984.312H551.684ZM568.167 994.098C570.925 994.098 573.067 992.04 573.067 989.114C573.067 986.188 570.925 984.13 568.167 984.13C565.423 984.13 563.267 986.188 563.267 989.114C563.267 992.04 565.423 994.098 568.167 994.098ZM568.167 992.992C566.109 992.992 564.569 991.494 564.569 989.114C564.569 986.72 566.109 985.236 568.167 985.236C570.225 985.236 571.765 986.72 571.765 989.114C571.765 991.494 570.225 992.992 568.167 992.992ZM582.421 984.228H581.147V991.984L576.023 984.228H574.749V994H576.023V986.23L581.147 994H582.421V984.228ZM583.991 984.242V985.278H586.665V994H587.939V985.278H590.599V984.242H583.991ZM592.559 994.532V995.708H600.007V994.532H592.559ZM605.71 996.604H607.04V996.478C605.094 994.476 604.1 991.718 604.1 988.876C604.1 986.02 605.094 983.08 607.25 981.05V980.924H605.92C603.932 982.758 602.868 985.712 602.868 988.876C602.868 992.026 603.932 994.854 605.71 996.604ZM608.316 989.114C608.316 992.04 610.458 994.084 613.188 994.084C615.302 994.084 616.982 993.034 617.71 991.158H616.184C615.652 992.32 614.616 992.978 613.188 992.978C611.144 992.978 609.618 991.494 609.618 989.114C609.618 986.72 611.144 985.236 613.188 985.236C614.616 985.236 615.652 985.894 616.184 987.07H617.71C616.982 985.18 615.302 984.116 613.188 984.116C610.458 984.116 608.316 986.188 608.316 989.114ZM620.53 996.604H619.2V996.478C621.146 994.476 622.14 991.718 622.14 988.876C622.14 986.02 621.146 983.08 618.99 981.05V980.924H620.32C622.308 982.758 623.372 985.712 623.372 988.876C623.372 992.026 622.308 994.854 620.53 996.604ZM625.684 993.09V994H632.418V992.936H627.546L629.576 990.976C631.494 989.114 632.152 987.994 632.152 986.734C632.152 985.012 630.976 983.85 628.988 983.85C627.182 983.85 625.768 984.97 625.726 987.196H626.958C626.986 985.852 627.686 984.942 628.974 984.942C630.262 984.942 630.864 985.684 630.864 986.734C630.864 987.77 630.262 988.666 628.61 990.262L625.684 993.09ZM634.094 988.834C634.094 991.774 634.822 994 637.622 994C640.408 994 641.136 991.774 641.136 988.834C641.136 985.936 640.408 983.724 637.622 983.724C634.822 983.724 634.094 985.936 634.094 988.834ZM639.876 988.834C639.876 991.018 639.61 992.838 637.622 992.838C635.62 992.838 635.354 991.018 635.354 988.834C635.354 986.734 635.62 984.886 637.622 984.886C639.61 984.886 639.876 986.734 639.876 988.834ZM643.893 985.04V994H645.181V983.878H642.549V985.04H643.893ZM648.377 985.04V994H649.665V983.878H647.033V985.04H648.377Z" fill="black"/>
</g>
<defs>
<clipPath id="clip0">
<rect width="1000" height="1000" fill="white"/>
</clipPath>
</defs>
</svg>
