<svg width="1024" height="1024" viewBox="0 0 1024 1024" fill="none" xmlns="http://www.w3.org/2000/svg">
<g clip-path="url(#clip0)">
<rect width="1024" height="1024" fill="#0E3345"/>
<g opacity="0.14">
<g opacity="0.38">
<path fill-rule="evenodd" clip-rule="evenodd" d="M581.484 1044.84C598.647 1084 623.303 1120.74 655.449 1152.91C715.317 1212.81 791.395 1246.6 869.556 1254.3C910.874 1235.72 949.582 1209.47 983.522 1175.53C1058.5 1100.54 1096 1002.27 1096 904C1096 805.742 1058.5 707.473 983.522 632.479C949.579 598.54 910.867 572.281 869.545 553.702C791.388 561.399 715.314 595.197 655.449 655.089C623.476 687.082 598.944 723.708 581.855 762.809C618.557 728.944 665.275 712 711.993 712C761.15 712 810.293 730.749 847.779 768.22C885.264 805.716 904 854.858 904 904C904 953.142 885.264 1002.28 847.779 1039.77C810.293 1077.25 761.15 1096 711.993 1096C665.118 1096 618.242 1078.94 581.484 1044.84Z" fill="#41A0A0"/>
<path fill-rule="evenodd" clip-rule="evenodd" d="M1172.72 358.435C1230.92 387.109 1285.48 425.661 1333.91 474.091C1452.64 592.806 1512 748.412 1512 903.994C1512 927.398 1510.66 950.802 1507.97 974.081C1526.66 906.751 1536 837.374 1536 768C1536 571.468 1461.02 374.914 1311.05 224.955C1161.36 75.2636 964.794 0.40741 768.005 0.418131V0C571.464 0 374.911 74.9742 224.953 224.955C74.9844 374.914 0 571.468 0 768H0.418128C0.418128 964.8 75.2631 1161.36 224.953 1311.06C374.911 1461.02 571.464 1536 768.005 1536C837.38 1536 906.757 1526.66 974.086 1507.97C950.806 1510.66 927.4 1512 903.994 1512C748.412 1512 592.818 1452.64 474.091 1333.91C425.826 1285.64 387.396 1231.2 358.802 1173.08C247.593 1060.67 192 914.322 192 768.218H192.435C192.435 620.844 248.651 473.482 361.071 361.061C473.49 248.64 620.851 192.435 768.223 192.435V192C914.169 192 1060.36 247.475 1172.72 358.435Z" fill="#41A0A0"/>
<path fill-rule="evenodd" clip-rule="evenodd" d="M632.854 1175.54C557.622 1100.26 520 1002.01 520 904H520.463C520.463 805.721 557.93 707.431 632.854 632.461C707.789 557.491 806.007 520 904.225 520C1002.46 520 1100.67 557.491 1175.6 632.461C1250.53 707.431 1288 805.721 1288 904C1288 1002.29 1250.53 1100.57 1175.6 1175.54C1100.67 1250.51 1002.46 1288 904.225 1288C806.007 1288 707.789 1250.51 632.854 1175.54ZM903.995 1480C1051.4 1480 1198.8 1423.76 1311.28 1311.28C1423.76 1198.8 1480 1051.39 1480 903.995C1480 756.601 1423.76 609.185 1311.28 496.717C1198.8 384.239 1051.4 328 903.995 328C756.601 328 609.196 384.239 496.717 496.717C384.239 609.185 328 756.601 328 903.995H328.429C328.429 1051.66 384.525 1199.09 496.717 1311.28C609.196 1423.76 756.601 1480 903.995 1480Z" fill="#41A0A0"/>
</g>
</g>
<g filter="url(#filter0_d)">
<path d="M400 256C285 256 192 335 192 432C192 472 207 508 233 538C217 571 194 595 194 596C191 598 191 601 192 604C193 607 196 608 199 608C238 608 270 597 295 584C326 600 361 608 400 608C514 608 608 530 608 432C608 335 514 256 400 256Z" fill="#41A0A0"/>
</g>
<g opacity="0.38" filter="url(#filter1_d)">
<path d="M829 755C832 758 832 761 831 764C830 767 827 768 824 768C788 768 757 759 732 747C705 760 673 768 640 768C549 768 474 712 453 635C560 614 640 531 640 432C640 427 639 422 639 417C639 416 639 416 640 416C746 416 832 495 832 592C832 633 816 670 791 700C807 732 829 755 829 755Z" fill="#41A0A0"/>
</g>
</g>
<defs>
<filter id="filter0_d" x="187.402" y="256" width="424.598" height="360" filterUnits="userSpaceOnUse" color-interpolation-filters="sRGB">
<feFlood flood-opacity="0" result="BackgroundImageFix"/>
<feColorMatrix in="SourceAlpha" type="matrix" values="0 0 0 0 0 0 0 0 0 0 0 0 0 0 0 0 0 0 127 0" result="hardAlpha"/>
<feOffset dy="4"/>
<feGaussianBlur stdDeviation="2"/>
<feColorMatrix type="matrix" values="0 0 0 0 0 0 0 0 0 0 0 0 0 0 0 0 0 0 0.25 0"/>
<feBlend mode="normal" in2="BackgroundImageFix" result="effect1_dropShadow"/>
<feBlend mode="normal" in="SourceGraphic" in2="effect1_dropShadow" result="shape"/>
</filter>
<filter id="filter1_d" x="449" y="416" width="387" height="360" filterUnits="userSpaceOnUse" color-interpolation-filters="sRGB">
<feFlood flood-opacity="0" result="BackgroundImageFix"/>
<feColorMatrix in="SourceAlpha" type="matrix" values="0 0 0 0 0 0 0 0 0 0 0 0 0 0 0 0 0 0 127 0" result="hardAlpha"/>
<feOffset dy="4"/>
<feGaussianBlur stdDeviation="2"/>
<feColorMatrix type="matrix" values="0 0 0 0 0 0 0 0 0 0 0 0 0 0 0 0 0 0 0.25 0"/>
<feBlend mode="normal" in2="BackgroundImageFix" result="effect1_dropShadow"/>
<feBlend mode="normal" in="SourceGraphic" in2="effect1_dropShadow" result="shape"/>
</filter>
<clipPath id="clip0">
<rect width="1024" height="1024" fill="white"/>
</clipPath>
</defs>
</svg>
