<svg width="2123" height="1024" viewBox="0 0 2123 1024" fill="none" xmlns="http://www.w3.org/2000/svg">
<path d="M701.671 648.688C756.967 648.688 784.615 612.592 784.615 578.032C784.615 476.656 634.087 530.032 634.087 442.864C634.087 408.688 663.655 388.336 698.983 388.72C741.223 388.72 760.807 415.984 764.647 434.8H783.079C777.703 403.312 750.055 373.744 699.367 373.744C649.063 373.744 616.807 404.848 616.807 443.248C616.807 545.776 767.335 491.248 767.335 578.416C767.335 609.136 742.375 633.712 701.671 633.712C650.983 633.712 634.087 601.84 631.015 579.568H612.967C616.039 617.2 647.527 648.688 701.671 648.688ZM853.624 492.4V437.488H836.344V744.304H853.624V591.472C865.144 622.96 896.248 649.072 941.944 649.072C1000.31 649.072 1042.55 607.216 1042.55 541.552C1042.55 475.504 1000.31 434.8 941.944 434.8C896.248 434.8 864.76 460.528 853.624 492.4ZM1024.89 541.552C1024.89 599.152 989.944 633.712 939.256 633.712C890.872 633.712 853.624 598 853.624 541.552C853.624 485.872 890.872 449.776 939.256 449.776C989.944 449.776 1024.89 483.952 1024.89 541.552ZM1184.96 449.392C1227.2 449.392 1267.9 476.272 1265.21 534.256H1101.63C1103.55 476.656 1142.33 449.392 1184.96 449.392ZM1280.96 577.648H1262.91C1256 612.208 1226.43 634.096 1185.34 634.096C1142.33 634.096 1103.17 606.448 1101.63 548.464H1281.73C1282.49 541.552 1282.49 536.944 1282.49 527.728C1282.49 479.344 1247.93 434.8 1185.34 434.8C1126.21 434.8 1083.97 475.12 1083.97 541.552C1083.97 608.368 1126.97 649.072 1185.34 649.072C1238.72 649.072 1272.89 618.736 1280.96 577.648ZM1323.97 541.552C1323.97 608.368 1366.21 649.072 1424.96 649.072C1477.95 649.072 1512.51 619.12 1520.57 576.496H1502.53C1495.61 612.592 1465.66 634.096 1424.96 634.096C1380.41 634.096 1341.63 604.528 1341.63 541.552C1341.63 478.96 1380.41 449.392 1424.96 449.392C1465.66 449.392 1495.61 471.28 1502.53 506.992H1520.57C1512.51 463.6 1477.95 434.8 1424.96 434.8C1366.21 434.8 1323.97 475.12 1323.97 541.552ZM1581.67 384.496V437.488H1550.18V452.464H1581.67V590.32C1581.67 631.408 1598.95 646 1634.66 646H1660.77V630.64H1637.35C1609.31 630.64 1598.95 621.808 1598.95 590.32V452.464H1660.77V437.488H1598.95V384.496H1581.67ZM1723.62 525.808C1723.62 468.976 1759.34 451.312 1795.05 451.312H1800.81V433.264C1759.72 433.264 1733.99 450.16 1723.62 480.496V437.488H1706.34V646H1723.62V525.808ZM1930.83 449.392C1973.07 449.392 2013.78 476.272 2011.09 534.256H1847.51C1849.43 476.656 1888.21 449.392 1930.83 449.392ZM2026.83 577.648H2008.79C2001.87 612.208 1972.31 634.096 1931.22 634.096C1888.21 634.096 1849.04 606.448 1847.51 548.464H2027.6C2028.37 541.552 2028.37 536.944 2028.37 527.728C2028.37 479.344 1993.81 434.8 1931.22 434.8C1872.08 434.8 1829.84 475.12 1829.84 541.552C1829.84 608.368 1872.85 649.072 1931.22 649.072C1984.59 649.072 2018.77 618.736 2026.83 577.648Z" fill="#F1F9FC"/>
<mask id="mask0_653:783" style="mask-type:alpha" maskUnits="userSpaceOnUse" x="74" y="224" width="373" height="576">
<rect x="74" y="224" width="372.708" height="576" fill="#C4C4C4"/>
</mask>
<g mask="url(#mask0_653:783)">
<path opacity="0.38" fill-rule="evenodd" clip-rule="evenodd" d="M239.165 480.533L239.165 682.611C239.165 695.825 239.165 701.03 241.524 702.533C245.025 704.763 253.725 698.836 275.336 698.836C293.467 698.836 315.975 703.803 339.635 709.024C363.179 714.22 387.864 719.667 410.51 720.722C447.95 722.467 484.094 710.327 512.169 700.898C534.756 693.312 552.119 687.48 560.732 692.044C580.05 702.281 581.855 692.044 581.855 676.558L581.855 480.533C581.855 396.89 555.459 303.135 410.51 303.135C265.561 303.135 239.165 402.424 239.165 480.533ZM273.455 456.937C273.455 440.971 285.45 428.553 300.871 428.553C315.435 428.553 328.286 440.971 328.286 456.937C328.286 472.016 314.578 485.32 300.871 485.32C286.306 485.32 273.455 472.016 273.455 456.937ZM383.116 456.937C383.116 440.971 395.11 428.553 410.532 428.553C425.096 428.553 437.947 440.971 437.947 456.937C437.947 472.016 425.096 485.32 410.532 485.32C395.11 485.32 383.116 472.016 383.116 456.937Z" fill="#F1F9FC"/>
<path d="M300.871 428.553C285.45 428.553 273.455 440.971 273.455 456.937C273.455 472.016 286.306 485.32 300.871 485.32C314.578 485.32 328.286 472.016 328.286 456.937C328.286 440.971 315.435 428.553 300.871 428.553ZM410.532 428.553C395.11 428.553 383.116 440.971 383.116 456.937C383.116 472.016 395.11 485.32 410.532 485.32C425.096 485.32 437.947 472.016 437.947 456.937C437.947 440.971 425.096 428.553 410.532 428.553Z" fill="#F1F9FC"/>
</g>
<path d="M426.788 303.218C426.788 292.086 435.504 283.062 446.256 283.062C457.008 283.062 465.724 292.086 465.724 303.218V720.618C465.724 731.75 457.008 740.774 446.256 740.774C435.504 740.774 426.788 731.75 426.788 720.618V303.218Z" fill="#F1F9FC"/>
</svg>
