<svg width="1024" height="1024" viewBox="0 0 1024 1024" fill="none" xmlns="http://www.w3.org/2000/svg">
<g id="Icon">
<rect id="Background" width="1024" height="1024" fill="#0E3345"/>
<g id="Logo">
<g id="Primary">
<path id="inner" fill-rule="evenodd" clip-rule="evenodd" d="M483.997 676C459.425 676 434.853 666.626 416.111 647.884C397.368 629.142 388 604.571 388 580C388 555.429 397.375 530.858 416.111 512.11C434.853 493.374 459.425 484 483.997 484C508.575 484 533.147 493.374 551.889 512.11C570.632 530.858 580 555.429 580 580C580 604.571 570.632 629.142 551.889 647.884C533.147 666.626 508.575 676 483.997 676ZM483.997 772C533.131 772 582.265 753.257 619.761 715.766C657.252 678.269 676 629.135 676 580C676 530.871 657.252 481.736 619.761 444.24C582.265 406.748 533.131 388 483.997 388C434.869 388 385.735 406.748 348.239 444.24C310.748 481.736 292 530.871 292 580C292 629.135 310.748 678.269 348.239 715.766C385.735 753.257 434.869 772 483.997 772Z" fill="#57CBCC" fill-opacity="0.38"/>
<path id="outer" fill-rule="evenodd" clip-rule="evenodd" d="M308.535 715.681C252.175 659.326 224 585.656 224 512.109H224.218C224.218 438.422 252.325 364.741 308.535 308.531C364.745 252.32 438.426 224.218 512.112 224.218V224C585.658 224 659.327 252.175 715.682 308.531C771.892 364.741 800 438.422 800 512.109C800 585.795 771.898 659.471 715.682 715.681C659.472 771.898 585.792 800 512.112 800C438.426 800 364.745 771.898 308.535 715.681ZM512.003 896C610.268 896 708.544 858.508 783.523 783.528C858.508 708.543 896 610.266 896 512C896 413.734 858.508 315.457 783.523 240.477C708.678 165.632 610.397 128.204 512.003 128.209V128C413.732 128 315.456 165.487 240.477 240.477C165.492 315.457 128 413.734 128 512H128.209C128.209 610.4 165.632 708.683 240.477 783.528C315.456 858.508 413.732 896 512.003 896Z" fill="#57CBCC" fill-opacity="0.38"/>
<path id="middle" fill-rule="evenodd" clip-rule="evenodd" d="M444.427 715.77C406.811 678.13 388 629.003 388 580H388.231C388.231 530.861 406.965 481.715 444.427 444.23C481.895 406.745 531.004 388 580.113 388C629.228 388 678.337 406.745 715.798 444.23C753.266 481.715 772 530.861 772 580C772 629.145 753.266 678.285 715.798 715.77C678.337 753.255 629.228 772 580.113 772C531.004 772 481.895 753.255 444.427 715.77ZM579.997 868C653.7 868 727.402 839.88 783.641 783.641C839.88 727.402 868 653.694 868 579.997C868 506.3 839.88 432.592 783.641 376.359C727.402 320.12 653.7 292 579.997 292C506.3 292 432.598 320.12 376.359 376.359C320.12 432.592 292 506.3 292 579.997H292.214C292.214 653.832 320.263 727.545 376.359 783.641C432.598 839.88 506.3 868 579.997 868Z" fill="#57CBCC" fill-opacity="0.38"/>
</g>
</g>
</g>
</svg>
