<svg width="1024" height="1024" viewBox="0 0 1024 1024" fill="none" xmlns="http://www.w3.org/2000/svg">
<rect width="1024" height="1024" fill="white"/>
<mask id="path-1-outside-1" maskUnits="userSpaceOnUse" x="276" y="372" width="416" height="416" fill="black">
<rect fill="white" x="276" y="372" width="416" height="416"/>
<path fill-rule="evenodd" clip-rule="evenodd" d="M483.997 676C459.425 676 434.853 666.626 416.111 647.884C397.368 629.142 388 604.571 388 580C388 555.429 397.375 530.858 416.111 512.11C434.853 493.374 459.425 484 483.997 484C508.575 484 533.147 493.374 551.889 512.11C570.632 530.858 580 555.429 580 580C580 604.571 570.632 629.142 551.889 647.884C533.147 666.626 508.575 676 483.997 676ZM483.997 772C533.131 772 582.265 753.257 619.761 715.766C657.252 678.269 676 629.135 676 580C676 530.871 657.252 481.736 619.761 444.24C582.265 406.748 533.131 388 483.997 388C434.869 388 385.735 406.748 348.239 444.24C310.748 481.736 292 530.871 292 580C292 629.135 310.748 678.269 348.239 715.766C385.735 753.257 434.869 772 483.997 772Z"/>
</mask>
<path fill-rule="evenodd" clip-rule="evenodd" d="M483.997 676C459.425 676 434.853 666.626 416.111 647.884C397.368 629.142 388 604.571 388 580C388 555.429 397.375 530.858 416.111 512.11C434.853 493.374 459.425 484 483.997 484C508.575 484 533.147 493.374 551.889 512.11C570.632 530.858 580 555.429 580 580C580 604.571 570.632 629.142 551.889 647.884C533.147 666.626 508.575 676 483.997 676ZM483.997 772C533.131 772 582.265 753.257 619.761 715.766C657.252 678.269 676 629.135 676 580C676 530.871 657.252 481.736 619.761 444.24C582.265 406.748 533.131 388 483.997 388C434.869 388 385.735 406.748 348.239 444.24C310.748 481.736 292 530.871 292 580C292 629.135 310.748 678.269 348.239 715.766C385.735 753.257 434.869 772 483.997 772Z" fill="#173D50" fill-opacity="0.62"/>
<path d="M416.111 512.11L404.799 500.794L404.793 500.8L416.111 512.11ZM551.889 512.11L563.205 500.798L563.201 500.794L551.889 512.11ZM619.761 715.766L631.074 727.08L631.076 727.079L619.761 715.766ZM619.761 444.24L631.076 432.927L631.074 432.925L619.761 444.24ZM348.239 444.24L336.926 432.925L336.924 432.927L348.239 444.24ZM348.239 715.766L336.924 727.079L336.926 727.08L348.239 715.766ZM483.997 660C463.494 660 443.045 652.191 427.424 636.57L404.797 659.198C426.661 681.061 455.356 692 483.997 692V660ZM427.424 636.57C411.805 620.951 404 600.504 404 580H372C372 608.638 382.931 637.333 404.797 659.198L427.424 636.57ZM404 580C404 559.499 411.809 539.049 427.428 523.42L404.793 500.8C382.94 522.668 372 551.359 372 580H404ZM427.422 523.426C443.044 507.81 463.494 500 483.997 500V468C455.356 468 426.662 478.939 404.799 500.794L427.422 523.426ZM483.997 500C504.506 500 524.956 507.81 540.578 523.426L563.201 500.794C541.337 478.938 512.644 468 483.997 468V500ZM540.574 523.422C556.195 539.048 564 559.497 564 580H596C596 551.362 585.068 522.668 563.205 500.798L540.574 523.422ZM564 580C564 600.504 556.195 620.951 540.576 636.57L563.203 659.198C585.069 637.333 596 608.638 596 580H564ZM540.576 636.57C524.955 652.19 504.506 660 483.997 660V692C512.644 692 541.339 681.061 563.203 659.198L540.576 636.57ZM483.997 788C537.201 788 590.457 767.692 631.074 727.08L608.448 704.451C574.073 738.822 529.061 756 483.997 756V788ZM631.076 727.079C671.686 686.462 692 633.206 692 580H660C660 625.063 642.818 670.076 608.447 704.453L631.076 727.079ZM692 580C692 526.799 671.686 473.543 631.076 432.927L608.447 455.552C642.818 489.929 660 534.942 660 580H692ZM631.074 432.925C590.458 392.314 537.203 372 483.997 372V404C529.06 404 574.072 421.182 608.448 455.554L631.074 432.925ZM483.997 372C430.797 372 377.542 392.315 336.926 432.925L359.552 455.554C393.928 421.182 438.94 404 483.997 404V372ZM336.924 432.927C296.314 473.543 276 526.799 276 580H308C308 534.942 325.182 489.929 359.553 455.552L336.924 432.927ZM276 580C276 633.206 296.314 686.462 336.924 727.079L359.553 704.453C325.182 670.076 308 625.063 308 580H276ZM336.926 727.08C377.542 767.692 430.798 788 483.997 788V756C438.939 756 393.927 738.823 359.552 704.451L336.926 727.08Z" fill="white" mask="url(#path-1-outside-1)"/>
<mask id="path-3-outside-2" maskUnits="userSpaceOnUse" x="112" y="112" width="800" height="800" fill="black">
<rect fill="white" x="112" y="112" width="800" height="800"/>
<path fill-rule="evenodd" clip-rule="evenodd" d="M308.535 715.681C252.175 659.326 224 585.656 224 512.109H224.218C224.218 438.422 252.325 364.741 308.535 308.531C364.745 252.32 438.426 224.218 512.112 224.218V224C585.658 224 659.327 252.175 715.682 308.531C771.892 364.741 800 438.422 800 512.109C800 585.795 771.898 659.471 715.682 715.681C659.472 771.898 585.792 800 512.112 800C438.426 800 364.745 771.898 308.535 715.681ZM512.003 896C610.268 896 708.544 858.508 783.523 783.528C858.508 708.543 896 610.266 896 512C896 413.734 858.508 315.457 783.523 240.477C708.678 165.632 610.397 128.204 512.003 128.209V128C413.732 128 315.456 165.487 240.477 240.477C165.492 315.457 128 413.734 128 512H128.209C128.209 610.4 165.632 708.683 240.477 783.528C315.456 858.508 413.732 896 512.003 896Z"/>
</mask>
<path fill-rule="evenodd" clip-rule="evenodd" d="M308.535 715.681C252.175 659.326 224 585.656 224 512.109H224.218C224.218 438.422 252.325 364.741 308.535 308.531C364.745 252.32 438.426 224.218 512.112 224.218V224C585.658 224 659.327 252.175 715.682 308.531C771.892 364.741 800 438.422 800 512.109C800 585.795 771.898 659.471 715.682 715.681C659.472 771.898 585.792 800 512.112 800C438.426 800 364.745 771.898 308.535 715.681ZM512.003 896C610.268 896 708.544 858.508 783.523 783.528C858.508 708.543 896 610.266 896 512C896 413.734 858.508 315.457 783.523 240.477C708.678 165.632 610.397 128.204 512.003 128.209V128C413.732 128 315.456 165.487 240.477 240.477C165.492 315.457 128 413.734 128 512H128.209C128.209 610.4 165.632 708.683 240.477 783.528C315.456 858.508 413.732 896 512.003 896Z" fill="#173D50" fill-opacity="0.62"/>
<path d="M308.535 715.681L319.85 704.368L319.848 704.367L308.535 715.681ZM224 512.109V496.109H208V512.109H224ZM224.218 512.109V528.109H240.218V512.109H224.218ZM512.112 224.218V240.218H528.112V224.218H512.112ZM512.112 224V208H496.112V224H512.112ZM715.682 308.531L726.996 297.217L715.682 308.531ZM715.682 715.681L704.369 704.367L704.368 704.368L715.682 715.681ZM783.523 783.528L772.21 772.214L772.21 772.214L783.523 783.528ZM783.523 240.477L772.21 251.791L772.21 251.791L783.523 240.477ZM512.003 128.209H496.003V144.21L512.004 144.209L512.003 128.209ZM512.003 128H528.003V112H512.003V128ZM240.477 240.477L251.79 251.791L251.791 251.79L240.477 240.477ZM128 512H112V528H128V512ZM128.209 512H144.209V496H128.209V512ZM240.477 783.528L229.163 794.842L240.477 783.528ZM319.848 704.367C266.596 651.119 240 581.566 240 512.109H208C208 589.746 237.754 667.533 297.222 726.996L319.848 704.367ZM224 528.109H224.218V496.109H224V528.109ZM240.218 512.109C240.218 442.492 266.76 372.933 319.849 319.844L297.221 297.217C237.89 356.549 208.218 434.353 208.218 512.109H240.218ZM319.849 319.844C372.937 266.756 442.494 240.218 512.112 240.218V208.218C434.357 208.218 356.553 237.884 297.221 297.217L319.849 319.844ZM528.112 224.218V224H496.112V224.218H528.112ZM512.112 240C581.568 240 651.121 266.596 704.369 319.844L726.996 297.217C667.534 237.754 589.748 208 512.112 208V240ZM704.369 319.844C757.457 372.933 784 442.492 784 512.109H816C816 434.353 786.327 356.549 726.996 297.217L704.369 319.844ZM784 512.109C784 581.726 757.462 651.279 704.369 704.367L726.995 726.996C786.333 667.663 816 589.864 816 512.109H784ZM704.368 704.368C651.28 757.462 581.723 784 512.112 784V816C589.861 816 667.665 786.333 726.997 726.995L704.368 704.368ZM512.112 784C442.494 784 372.937 757.462 319.85 704.368L297.221 726.995C356.553 786.333 434.357 816 512.112 816V784ZM512.003 912C614.338 912 716.737 872.942 794.837 794.842L772.21 772.214C700.352 844.073 606.198 880 512.003 880V912ZM794.837 794.842C872.942 716.736 912 614.337 912 512H880C880 606.196 844.073 700.35 772.21 772.214L794.837 794.842ZM912 512C912 409.664 872.942 307.264 794.837 229.163L772.21 251.791C844.073 323.65 880 417.804 880 512H912ZM794.837 229.164C716.861 151.187 614.452 112.203 512.002 112.209L512.004 144.209C606.341 144.204 700.495 180.076 772.21 251.791L794.837 229.164ZM528.003 128.209V128H496.003V128.209H528.003ZM512.003 112C409.662 112 307.263 151.052 229.162 229.164L251.791 251.79C323.648 179.922 417.801 144 512.003 144V112ZM229.163 229.163C151.058 307.264 112 409.664 112 512H144C144 417.804 179.927 323.65 251.79 251.791L229.163 229.163ZM128 528H128.209V496H128V528ZM112.209 512C112.209 614.455 151.187 716.865 229.163 794.842L251.79 772.214C180.077 700.5 144.209 606.345 144.209 512H112.209ZM229.163 794.842C307.263 872.942 409.662 912 512.003 912V880C417.802 880 323.648 844.073 251.79 772.214L229.163 794.842Z" fill="white" mask="url(#path-3-outside-2)"/>
<mask id="path-5-outside-3" maskUnits="userSpaceOnUse" x="276" y="276" width="608" height="608" fill="black">
<rect fill="white" x="276" y="276" width="608" height="608"/>
<path fill-rule="evenodd" clip-rule="evenodd" d="M444.427 715.77C406.811 678.13 388 629.003 388 580H388.231C388.231 530.861 406.965 481.715 444.427 444.23C481.895 406.745 531.004 388 580.113 388C629.228 388 678.337 406.745 715.798 444.23C753.266 481.715 772 530.861 772 580C772 629.145 753.266 678.285 715.798 715.77C678.337 753.255 629.228 772 580.113 772C531.004 772 481.895 753.255 444.427 715.77ZM579.997 868C653.7 868 727.402 839.88 783.641 783.641C839.88 727.402 868 653.694 868 579.997C868 506.3 839.88 432.592 783.641 376.359C727.402 320.12 653.7 292 579.997 292C506.3 292 432.598 320.12 376.359 376.359C320.12 432.592 292 506.3 292 579.997H292.214C292.214 653.832 320.263 727.545 376.359 783.641C432.598 839.88 506.3 868 579.997 868Z"/>
</mask>
<path fill-rule="evenodd" clip-rule="evenodd" d="M444.427 715.77C406.811 678.13 388 629.003 388 580H388.231C388.231 530.861 406.965 481.715 444.427 444.23C481.895 406.745 531.004 388 580.113 388C629.228 388 678.337 406.745 715.798 444.23C753.266 481.715 772 530.861 772 580C772 629.145 753.266 678.285 715.798 715.77C678.337 753.255 629.228 772 580.113 772C531.004 772 481.895 753.255 444.427 715.77ZM579.997 868C653.7 868 727.402 839.88 783.641 783.641C839.88 727.402 868 653.694 868 579.997C868 506.3 839.88 432.592 783.641 376.359C727.402 320.12 653.7 292 579.997 292C506.3 292 432.598 320.12 376.359 376.359C320.12 432.592 292 506.3 292 579.997H292.214C292.214 653.832 320.263 727.545 376.359 783.641C432.598 839.88 506.3 868 579.997 868Z" fill="#173D50" fill-opacity="0.62"/>
<path d="M444.427 715.77L433.11 727.08L433.111 727.081L444.427 715.77ZM388 580V564H372V580H388ZM388.231 580V596H404.231V580H388.231ZM444.427 444.23L433.111 432.919L433.11 432.92L444.427 444.23ZM715.798 444.23L704.481 455.541L704.482 455.542L715.798 444.23ZM715.798 715.77L704.482 704.458L704.481 704.459L715.798 715.77ZM783.641 376.359L772.328 387.672L772.328 387.673L783.641 376.359ZM376.359 376.359L387.672 387.673L387.672 387.672L376.359 376.359ZM292 579.997H276V595.997H292V579.997ZM292.214 579.997H308.214V563.997H292.214V579.997ZM455.744 704.459C421.225 669.919 404 624.903 404 580H372C372 633.103 392.397 686.342 433.11 727.08L455.744 704.459ZM388 596H388.231V564H388V596ZM404.231 580C404.231 534.926 421.403 489.903 455.744 455.541L433.11 432.92C392.527 473.528 372.231 526.795 372.231 580H404.231ZM455.743 455.542C490.091 421.178 535.076 404 580.113 404V372C526.931 372 473.699 392.313 433.111 432.919L455.743 455.542ZM580.113 404C625.155 404 670.14 421.179 704.481 455.541L727.116 432.92C686.533 392.312 633.3 372 580.113 372V404ZM704.482 455.542C738.828 489.904 756 534.927 756 580H788C788 526.795 767.704 473.527 727.115 432.919L704.482 455.542ZM756 580C756 625.079 738.829 670.096 704.482 704.458L727.115 727.081C767.704 686.473 788 633.211 788 580H756ZM704.481 704.459C670.14 738.821 625.155 756 580.113 756V788C633.3 788 686.533 767.688 727.116 727.08L704.481 704.459ZM580.113 756C535.076 756 490.091 738.822 455.743 704.458L433.111 727.081C473.699 767.687 526.931 788 580.113 788V756ZM579.997 884C657.77 884 735.595 854.315 794.955 794.955L772.328 772.328C719.209 825.446 649.629 852 579.997 852V884ZM794.955 794.955C854.315 735.595 884 657.765 884 579.997H852C852 649.624 825.446 719.209 772.328 772.328L794.955 794.955ZM884 579.997C884 502.23 854.315 424.399 794.954 365.044L772.328 387.673C825.446 440.786 852 510.371 852 579.997H884ZM794.955 365.045C735.595 305.685 657.77 276 579.997 276V308C649.629 308 719.209 334.554 772.328 387.672L794.955 365.045ZM579.997 276C502.229 276 424.405 305.685 365.045 365.045L387.672 387.672C440.791 334.554 510.371 308 579.997 308V276ZM365.046 365.044C305.685 424.399 276 502.23 276 579.997H308C308 510.371 334.554 440.786 387.672 387.673L365.046 365.044ZM292 595.997H292.214V563.997H292V595.997ZM276.214 579.997C276.214 657.881 305.814 735.724 365.045 794.955L387.672 772.328C334.711 719.366 308.214 649.782 308.214 579.997H276.214ZM365.045 794.955C424.405 854.315 502.229 884 579.997 884V852C510.371 852 440.791 825.446 387.672 772.328L365.045 794.955Z" fill="white" mask="url(#path-5-outside-3)"/>
</svg>
