<svg width="1024" height="1024" viewBox="0 0 1024 1024" fill="none" xmlns="http://www.w3.org/2000/svg">
<g id="Light Logo Personal">
<g id="Light Glyph Personal" clip-path="url(#clip0_615:2139)">
<g id="Personal">
<g id="Spectre">
<g id="Spectre_2">
<mask id="mask0_615:2139" style="mask-type:alpha" maskUnits="userSpaceOnUse" x="0" y="0" width="686" height="1024">
<rect id="Mask" width="686" height="1024" fill="#C4C4C4"/>
</mask>
<g mask="url(#mask0_615:2139)">
<path id="Subtract" opacity="0.38" fill-rule="evenodd" clip-rule="evenodd" d="M304 456.059L304 815.308C304 838.618 304 847.91 308.242 850.662C314.621 854.8 330.592 844.153 370.576 844.153C403.947 844.153 445.375 852.983 488.924 862.265C532.258 871.501 577.692 881.185 619.375 883.061C688.285 886.163 754.812 864.582 806.486 847.819C848.059 834.332 880.018 823.964 895.87 832.078C931.426 850.278 934.749 832.078 934.749 804.548L934.749 456.059C934.749 307.36 886.166 140.685 619.375 140.685C352.584 140.685 304 317.198 304 456.059ZM367.114 414.11C367.114 385.726 389.19 363.65 417.574 363.65C444.381 363.65 468.034 385.726 468.034 414.11C468.034 440.916 442.804 464.57 417.574 464.57C390.767 464.57 367.114 440.916 367.114 414.11ZM568.954 414.11C568.954 385.726 591.03 363.65 619.414 363.65C646.221 363.65 669.874 385.726 669.874 414.11C669.874 440.916 646.221 464.57 619.414 464.57C591.03 464.57 568.954 440.916 568.954 414.11Z" fill="#F1F9FC"/>
<path id="Eyes" d="M417.574 363.65C389.19 363.65 367.114 385.726 367.114 414.11C367.114 440.917 390.767 464.57 417.574 464.57C442.804 464.57 468.034 440.917 468.034 414.11C468.034 385.726 444.381 363.65 417.574 363.65ZM619.414 363.65C591.03 363.65 568.954 385.726 568.954 414.11C568.954 440.917 591.03 464.57 619.414 464.57C646.221 464.57 669.874 440.917 669.874 414.11C669.874 385.726 646.221 363.65 619.414 363.65Z" fill="#F1F9FC"/>
</g>
</g>
<path id="Rectangle 1" d="M649.336 140.832C649.336 121.043 665.378 105 685.168 105C704.957 105 721 121.043 721 140.832V882.877C721 902.666 704.957 918.709 685.168 918.709C665.378 918.709 649.336 902.666 649.336 882.877V140.832Z" fill="#F1F9FC"/>
</g>
</g>
</g>
</g>
<defs>
<clipPath id="clip0_615:2139">
<rect width="814" height="814" fill="white" transform="translate(105 105)"/>
</clipPath>
</defs>
</svg>
