<svg width="1024" height="1024" viewBox="0 0 1024 1024" fill="none" xmlns="http://www.w3.org/2000/svg">
<g id="Light Logo Combination">
<g id="Enterprise">
<mask id="mask0_653:351" style="mask-type:alpha" maskUnits="userSpaceOnUse" x="48" y="48" width="1024" height="1024">
<path id="Polygon 1" d="M1072 1072L48 1072L1072 47.9999L1072 1072Z" fill="#C4C4C4"/>
</mask>
<g mask="url(#mask0_653:351)">
<g id="Enterprise_2">
<g id="Logo">
<g id="Primary">
<path id="inner" fill-rule="evenodd" clip-rule="evenodd" d="M483.997 676C459.425 676 434.853 666.626 416.111 647.884C397.368 629.142 388 604.571 388 580C388 555.429 397.375 530.858 416.111 512.11C434.853 493.374 459.425 484 483.997 484C508.575 484 533.147 493.374 551.889 512.11C570.632 530.858 580 555.429 580 580C580 604.571 570.632 629.142 551.889 647.884C533.147 666.626 508.575 676 483.997 676ZM483.997 772C533.131 772 582.265 753.257 619.761 715.766C657.252 678.269 676 629.135 676 580C676 530.871 657.252 481.736 619.761 444.24C582.265 406.748 533.131 388 483.997 388C434.869 388 385.735 406.748 348.239 444.24C310.748 481.736 292 530.871 292 580C292 629.135 310.748 678.269 348.239 715.766C385.735 753.257 434.869 772 483.997 772Z" fill="#F1F9FC" fill-opacity="0.62"/>
<path id="Subtract" fill-rule="evenodd" clip-rule="evenodd" d="M308.535 715.681C252.175 659.326 224 585.656 224 512.109H224.218C224.218 438.422 252.325 364.741 308.535 308.531C364.745 252.32 438.426 224.218 512.112 224.218V224C585.658 224 659.327 252.175 715.682 308.531C771.892 364.741 800 438.422 800 512.109C800 585.795 771.898 659.471 715.682 715.681C659.472 771.898 585.792 800 512.112 800C438.426 800 364.745 771.898 308.535 715.681ZM512.003 896C610.268 896 708.544 858.508 783.523 783.528C858.508 708.543 896 610.266 896 512C896 413.734 858.508 315.457 783.523 240.477C708.678 165.632 610.397 128.204 512.003 128.209V128C413.732 128 315.456 165.487 240.477 240.477C165.492 315.457 128 413.734 128 512H128.209C128.209 610.4 165.632 708.683 240.477 783.528C315.456 858.508 413.732 896 512.003 896Z" fill="#F1F9FC" fill-opacity="0.62"/>
<path id="Subtract_2" fill-rule="evenodd" clip-rule="evenodd" d="M444.427 715.77C406.811 678.13 388 629.003 388 580H388.231C388.231 530.861 406.965 481.715 444.427 444.23C481.895 406.745 531.004 388 580.113 388C629.228 388 678.337 406.745 715.798 444.23C753.266 481.715 772 530.861 772 580C772 629.145 753.266 678.285 715.798 715.77C678.337 753.255 629.228 772 580.113 772C531.004 772 481.895 753.255 444.427 715.77ZM579.997 868C653.7 868 727.402 839.88 783.641 783.641C839.88 727.402 868 653.694 868 579.997C868 506.3 839.88 432.592 783.641 376.359C727.402 320.12 653.7 292 579.997 292C506.3 292 432.598 320.12 376.359 376.359C320.12 432.592 292 506.3 292 579.997H292.214C292.214 653.832 320.263 727.545 376.359 783.641C432.598 839.88 506.3 868 579.997 868Z" fill="#F1F9FC" fill-opacity="0.62"/>
</g>
</g>
</g>
</g>
</g>
<g id="Personal">
<mask id="mask1_653:351" style="mask-type:alpha" maskUnits="userSpaceOnUse" x="32" y="32" width="1024" height="1025">
<path id="Polygon 1_2" d="M32 32L1056 32.0001L32.0001 1056L32 32Z" fill="#C4C4C4"/>
</mask>
<g mask="url(#mask1_653:351)">
<g id="Personal_2">
<g id="Spectre">
<g id="Spectre_2">
<mask id="mask2_653:351" style="mask-type:alpha" maskUnits="userSpaceOnUse" x="0" y="0" width="686" height="1024">
<rect id="Mask" width="686" height="1024" fill="#C4C4C4"/>
</mask>
<g mask="url(#mask2_653:351)">
<path id="Subtract_3" opacity="0.38" fill-rule="evenodd" clip-rule="evenodd" d="M304 456.059L304 815.308C304 838.618 304 847.91 308.242 850.662C314.621 854.8 330.592 844.153 370.576 844.153C403.947 844.153 445.375 852.983 488.924 862.265C532.258 871.501 577.692 881.185 619.375 883.061C688.285 886.163 754.812 864.582 806.486 847.819C848.059 834.332 880.018 823.964 895.87 832.078C931.426 850.278 934.749 832.078 934.749 804.548L934.749 456.059C934.749 307.36 886.166 140.685 619.375 140.685C352.584 140.685 304 317.198 304 456.059ZM367.114 414.11C367.114 385.726 389.19 363.65 417.574 363.65C444.381 363.65 468.034 385.726 468.034 414.11C468.034 440.916 442.804 464.57 417.574 464.57C390.767 464.57 367.114 440.916 367.114 414.11ZM568.954 414.11C568.954 385.726 591.03 363.65 619.414 363.65C646.221 363.65 669.874 385.726 669.874 414.11C669.874 440.916 646.221 464.57 619.414 464.57C591.03 464.57 568.954 440.916 568.954 414.11Z" fill="#F1F9FC"/>
<path id="Eyes" d="M417.574 363.65C389.19 363.65 367.114 385.726 367.114 414.11C367.114 440.917 390.767 464.57 417.574 464.57C442.804 464.57 468.034 440.917 468.034 414.11C468.034 385.726 444.381 363.65 417.574 363.65ZM619.414 363.65C591.03 363.65 568.954 385.726 568.954 414.11C568.954 440.917 591.03 464.57 619.414 464.57C646.221 464.57 669.874 440.917 669.874 414.11C669.874 385.726 646.221 363.65 619.414 363.65Z" fill="#F1F9FC"/>
</g>
</g>
<path id="Rectangle 1" d="M649.335 140.832C649.335 121.043 665.378 105 685.168 105C704.957 105 721 121.043 721 140.832V882.877C721 902.666 704.957 918.709 685.168 918.709C665.378 918.709 649.335 902.666 649.335 882.877V140.832Z" fill="#F1F9FC"/>
</g>
</g>
</g>
</g>
</g>
</svg>
