<svg width="814" height="814" viewBox="0 0 814 814" fill="none" xmlns="http://www.w3.org/2000/svg">
<g clip-path="url(#clip0_631:6806)">
<path fill-rule="evenodd" clip-rule="evenodd" d="M378.997 571C354.425 571 329.853 561.626 311.111 542.884C292.368 524.142 283 499.571 283 475C283 450.429 292.375 425.858 311.111 407.11C329.853 388.374 354.425 379 378.997 379C403.575 379 428.147 388.374 446.889 407.11C465.632 425.858 475 450.429 475 475C475 499.571 465.632 524.142 446.889 542.884C428.147 561.626 403.575 571 378.997 571ZM378.997 667C428.131 667 477.265 648.257 514.761 610.766C552.252 573.269 571 524.135 571 475C571 425.871 552.252 376.736 514.761 339.24C477.265 301.748 428.131 283 378.997 283C329.869 283 280.735 301.748 243.239 339.24C205.748 376.736 187 425.871 187 475C187 524.135 205.748 573.269 243.239 610.766C280.735 648.257 329.869 667 378.997 667Z" fill="#F1F9FC" fill-opacity="0.62"/>
<path fill-rule="evenodd" clip-rule="evenodd" d="M203.535 610.681C147.175 554.326 119 480.656 119 407.109H119.218C119.218 333.422 147.325 259.741 203.535 203.531C259.745 147.32 333.426 119.218 407.112 119.218V119C480.658 119 554.327 147.175 610.682 203.531C666.892 259.741 695 333.422 695 407.109C695 480.795 666.898 554.471 610.682 610.681C554.472 666.898 480.792 695 407.112 695C333.426 695 259.745 666.898 203.535 610.681ZM407.003 791C505.268 791 603.544 753.508 678.523 678.528C753.508 603.543 791 505.266 791 407C791 308.734 753.508 210.457 678.523 135.477C603.678 60.6318 505.397 23.2037 407.003 23.2091V23C308.732 23 210.456 60.4871 135.477 135.477C60.4922 210.457 23 308.734 23 407H23.2091C23.2091 505.4 60.6316 603.682 135.477 678.528C210.456 753.508 308.732 791 407.003 791Z" fill="#F1F9FC" fill-opacity="0.62"/>
<path fill-rule="evenodd" clip-rule="evenodd" d="M339.427 610.77C301.811 573.13 283 524.003 283 475H283.231C283.231 425.861 301.965 376.715 339.427 339.23C376.895 301.745 426.004 283 475.113 283C524.228 283 573.337 301.745 610.798 339.23C648.266 376.715 667 425.861 667 475C667 524.145 648.266 573.285 610.798 610.77C573.337 648.255 524.228 667 475.113 667C426.004 667 376.895 648.255 339.427 610.77ZM474.997 763C548.7 763 622.402 734.88 678.641 678.641C734.88 622.402 763 548.694 763 474.997C763 401.3 734.88 327.592 678.641 271.359C622.402 215.12 548.7 187 474.997 187C401.3 187 327.598 215.12 271.359 271.359C215.12 327.592 187 401.3 187 474.997H187.214C187.214 548.832 215.263 622.545 271.359 678.641C327.598 734.88 401.3 763 474.997 763Z" fill="#F1F9FC" fill-opacity="0.62"/>
</g>
<defs>
<clipPath id="clip0_631:6806">
<rect width="814" height="814" fill="white"/>
</clipPath>
</defs>
</svg>
