<svg width="814" height="814" viewBox="0 0 814 814" fill="none" xmlns="http://www.w3.org/2000/svg">
<g clip-path="url(#clip0_630:752)">
<mask id="mask0_630:752" style="mask-type:alpha" maskUnits="userSpaceOnUse" x="-105" y="-105" width="686" height="1024">
<rect x="-105" y="-105" width="686" height="1024" fill="#C4C4C4"/>
</mask>
<g mask="url(#mask0_630:752)">
<path opacity="0.38" fill-rule="evenodd" clip-rule="evenodd" d="M199 351.059L199 710.308C199 733.618 199 742.91 203.242 745.662C209.621 749.8 225.592 739.153 265.576 739.153C298.947 739.153 340.375 747.983 383.924 757.265C427.258 766.501 472.692 776.185 514.375 778.061C583.285 781.163 649.812 759.582 701.486 742.819C743.059 729.332 775.018 718.964 790.87 727.078C826.426 745.278 829.749 727.078 829.749 699.548L829.749 351.059C829.749 202.36 781.166 35.6846 514.375 35.6846C247.584 35.6846 199 212.198 199 351.059ZM262.114 309.11C262.114 280.726 284.19 258.65 312.574 258.65C339.381 258.65 363.034 280.726 363.034 309.11C363.034 335.916 337.804 359.57 312.574 359.57C285.767 359.57 262.114 335.916 262.114 309.11ZM463.954 309.11C463.954 280.726 486.03 258.65 514.414 258.65C541.221 258.65 564.874 280.726 564.874 309.11C564.874 335.916 541.221 359.57 514.414 359.57C486.03 359.57 463.954 335.916 463.954 309.11Z" fill="#F1F9FC"/>
<path d="M312.574 258.65C284.19 258.65 262.114 280.726 262.114 309.11C262.114 335.917 285.767 359.57 312.574 359.57C337.804 359.57 363.034 335.917 363.034 309.11C363.034 280.726 339.381 258.65 312.574 258.65ZM514.414 258.65C486.03 258.65 463.954 280.726 463.954 309.11C463.954 335.917 486.03 359.57 514.414 359.57C541.221 359.57 564.874 335.917 564.874 309.11C564.874 280.726 541.221 258.65 514.414 258.65Z" fill="#F1F9FC"/>
</g>
<path d="M544.336 35.8322C544.336 16.0426 560.378 0 580.168 0C599.957 0 616 16.0426 616 35.8322V777.877C616 797.666 599.957 813.709 580.168 813.709C560.378 813.709 544.336 797.666 544.336 777.877V35.8322Z" fill="#F1F9FC"/>
</g>
<defs>
<clipPath id="clip0_630:752">
<rect width="814" height="814" fill="white"/>
</clipPath>
</defs>
</svg>
