<svg width="1024" height="1024" viewBox="0 0 1024 1024" fill="none" xmlns="http://www.w3.org/2000/svg">
<path fill-rule="evenodd" clip-rule="evenodd" d="M418.742 650.419C427.324 670 439.651 688.372 455.725 704.455C485.658 734.403 523.698 751.302 562.778 755.149C583.437 745.862 602.791 732.734 619.761 715.766C657.252 678.269 676 629.135 676 580C676 530.871 657.252 481.736 619.761 444.24C602.789 427.27 583.434 414.14 562.772 404.851C523.694 408.7 485.657 425.599 455.725 455.545C439.738 471.541 427.472 489.854 418.927 509.404C437.278 492.472 460.638 484 483.997 484C508.575 484 533.147 493.374 551.889 512.11C570.632 530.858 580 555.429 580 580C580 604.571 570.632 629.142 551.889 647.884C533.147 666.626 508.575 676 483.997 676C460.559 676 437.121 667.471 418.742 650.419Z" fill="#57CBCC"/>
<path fill-rule="evenodd" clip-rule="evenodd" d="M714.361 307.217C743.458 321.555 770.74 340.831 794.955 365.045C854.318 424.403 884 502.206 884 579.997C884 591.699 883.328 603.401 881.985 615.04C891.328 581.376 896 546.687 896 512C896 413.734 858.508 315.457 783.523 240.477C708.678 165.632 610.397 128.204 512.003 128.209V128C413.732 128 315.456 165.487 240.477 240.477C165.492 315.457 128 413.734 128 512H128.209C128.209 610.4 165.632 708.682 240.477 783.528C315.456 858.508 413.732 896 512.003 896C546.69 896 581.378 891.328 615.043 881.985C603.403 883.328 591.7 884 579.997 884C502.206 884 424.409 854.318 365.045 794.955C340.913 770.822 321.698 743.601 307.401 714.541C251.797 658.334 224 585.161 224 512.109H224.218C224.218 438.422 252.325 364.741 308.535 308.531C364.745 252.32 438.426 224.218 512.112 224.218V224C585.085 224 658.178 251.737 714.361 307.217Z" fill="#57CBCC"/>
<path fill-rule="evenodd" clip-rule="evenodd" d="M444.427 715.77C406.811 678.13 388 629.003 388 580H388.231C388.231 530.861 406.965 481.715 444.427 444.23C481.895 406.745 531.004 388 580.113 388C629.228 388 678.337 406.745 715.798 444.23C753.266 481.715 772 530.861 772 580C772 629.145 753.266 678.285 715.798 715.77C678.337 753.255 629.228 772 580.113 772C531.004 772 481.895 753.255 444.427 715.77ZM579.997 868C653.7 868 727.402 839.88 783.641 783.641C839.88 727.402 868 653.694 868 579.997C868 506.3 839.88 432.592 783.641 376.359C727.402 320.12 653.7 292 579.997 292C506.3 292 432.598 320.12 376.359 376.359C320.12 432.592 292 506.3 292 579.997H292.214C292.214 653.832 320.263 727.545 376.359 783.641C432.598 839.88 506.3 868 579.997 868Z" fill="#57CBCC"/>
</svg>
